<svg width="223" height="116" viewBox="0 0 223 116" fill="none" xmlns="http://www.w3.org/2000/svg">
<path d="M176.67 4.98944C162.543 15.5163 159.441 49.8119 159.441 49.8119C165.299 44.0392 176.67 44.1732 176.67 44.1732C176.67 44.1732 188.04 44.0392 193.898 49.8119C193.898 49.8119 190.796 15.5163 176.67 4.98944Z" fill="#03C9C9"/>
<path d="M176.652 4.98947C176.652 4.98947 141.766 4.22582 131.171 44.8462C131.171 44.8462 146.073 37.0788 159.424 49.8119C159.424 49.8119 162.525 15.5163 176.652 4.98947Z" fill="#FF8F00"/>
<path d="M176.661 4.98947C176.661 4.98947 211.548 4.22582 222.143 44.8462C222.143 44.8462 207.241 37.0788 193.89 49.8119C193.89 49.8119 190.788 15.5163 176.661 4.98947Z" fill="#F2DB06"/>
<path d="M176.667 4.98989C176.667 4.98989 178.121 4.95866 180.523 5.25284C180.529 5.16519 180.536 5.07855 180.536 4.98989C180.536 2.88432 178.804 1.1767 176.667 1.1767C174.531 1.1767 172.798 2.88432 172.798 4.98989C172.798 5.07855 172.805 5.16519 172.811 5.25284C175.214 4.95866 176.667 4.98989 176.667 4.98989Z" fill="white"/>
<path d="M193.906 50.3219C193.772 50.3219 193.64 50.2706 193.541 50.1728C187.906 44.6188 176.783 44.6822 176.685 44.6832C176.569 44.6802 165.45 44.6208 159.817 50.1728C159.663 50.324 159.429 50.3642 159.233 50.2736C159.036 50.1829 158.918 49.9804 158.937 49.7668C159.065 48.3574 162.221 15.1247 176.368 4.58372C176.553 4.4467 176.807 4.4467 176.991 4.58372C191.137 15.1257 194.294 48.3574 194.422 49.7668C194.441 49.9804 194.322 50.1829 194.125 50.2736C194.055 50.3058 193.98 50.3219 193.906 50.3219ZM176.678 5.63348C164.696 14.9766 160.849 42.22 160.108 48.5398C166.223 43.6012 176.237 43.6577 176.684 43.6637C177.118 43.6566 187.132 43.6012 193.248 48.5398C192.506 42.22 188.657 14.9756 176.678 5.63348Z" fill="#3D3D3D"/>
<path d="M159.431 50.322C159.299 50.322 159.169 50.2726 159.071 50.1789C146.138 37.8437 131.563 45.2212 131.418 45.2968C131.237 45.3915 131.017 45.3713 130.856 45.2464C130.696 45.1215 130.624 44.915 130.675 44.7195C136.197 23.549 148.398 13.7344 157.661 9.22908C167.703 4.34396 176.305 4.46989 176.669 4.48097C176.889 4.48601 177.081 4.62705 177.149 4.83358C177.217 5.0401 177.145 5.26577 176.97 5.39674C163.186 15.6677 159.976 49.517 159.946 49.8575C159.928 50.053 159.798 50.2212 159.612 50.2897C159.552 50.3109 159.492 50.322 159.431 50.322ZM141.958 42.0276C147 42.0276 153.146 43.4935 159.021 48.7362C159.646 43.0079 163.182 16.0002 175.152 5.54987C172.252 5.73121 165.495 6.54523 158.076 10.164C149.175 14.5051 137.492 23.8834 131.954 43.9458C133.653 43.2577 137.342 42.0276 141.958 42.0276Z" fill="#3D3D3D"/>
<path d="M193.892 50.322C193.832 50.322 193.77 50.3119 193.712 50.2897C193.525 50.2212 193.395 50.053 193.378 49.8575C193.347 49.517 190.135 15.6657 176.353 5.39573C176.178 5.26476 176.106 5.03909 176.173 4.83256C176.241 4.62604 176.434 4.48499 176.654 4.47996C177.017 4.46787 185.617 4.34194 195.662 9.22807C204.925 13.7334 217.126 23.548 222.648 44.7185C222.699 44.914 222.627 45.1195 222.467 45.2454C222.306 45.3703 222.085 45.3895 221.906 45.2958C221.759 45.2202 207.167 37.8608 194.252 50.1779C194.153 50.2716 194.024 50.322 193.892 50.322ZM178.171 5.54987C190.142 16.0012 193.676 43.0109 194.302 48.7362C205.555 38.694 217.814 42.5072 221.369 43.9448C215.831 23.8834 204.148 14.5051 195.247 10.163C187.828 6.54523 181.072 5.73121 178.171 5.54987Z" fill="#3D3D3D"/>
<path d="M172.819 5.76231C172.699 5.76231 172.582 5.72201 172.49 5.64544C172.381 5.55679 172.314 5.42683 172.303 5.2878C172.295 5.16791 172.289 5.07926 172.289 4.98959C172.289 2.60597 174.257 0.666626 176.675 0.666626C179.094 0.666626 181.062 2.60597 181.062 4.98959C181.062 5.07926 181.055 5.1669 181.049 5.25556C181.04 5.39459 180.971 5.54067 180.861 5.63033C180.752 5.71899 180.608 5.77843 180.468 5.75928C178.139 5.47418 176.7 5.49836 176.687 5.50037C176.679 5.50037 176.671 5.50037 176.664 5.50037C176.652 5.49936 175.212 5.47418 172.883 5.75928C172.86 5.76029 172.839 5.76231 172.819 5.76231ZM176.674 1.68617C174.931 1.68617 173.495 3.0029 173.337 4.68031C175.324 4.46471 176.536 4.47781 176.674 4.48083C176.814 4.47781 178.027 4.46471 180.012 4.68031C179.853 3.0029 178.417 1.68617 176.674 1.68617Z" fill="#3D3D3D"/>
<path d="M188.161 41.9237C188.073 41.9237 187.983 41.9015 187.9 41.8542C187.897 41.8522 187.515 41.6336 186.796 41.3343C186.533 41.2245 186.411 40.9263 186.521 40.6674C186.632 40.4085 186.933 40.2866 187.199 40.3964C187.987 40.7248 188.406 40.9656 188.423 40.9757C188.669 41.1177 188.751 41.4301 188.607 41.6718C188.511 41.834 188.338 41.9237 188.161 41.9237Z" fill="white"/>
<path d="M184.794 40.6019C184.746 40.6019 184.697 40.5948 184.648 40.5807C183.928 40.3722 183.175 40.1898 182.409 40.0417C182.129 39.9873 181.947 39.7193 182.002 39.4433C182.059 39.1673 182.331 38.9869 182.61 39.0423C183.407 39.1975 184.191 39.3859 184.94 39.6045C185.214 39.6841 185.371 39.9672 185.29 40.2372C185.223 40.4578 185.018 40.6019 184.794 40.6019ZM168.518 40.5072C168.293 40.5072 168.086 40.3621 168.022 40.1395C167.942 39.8695 168.101 39.5864 168.375 39.5078C169.108 39.2982 169.897 39.1179 170.717 38.9718C171.003 38.9194 171.267 39.1058 171.318 39.3829C171.369 39.6599 171.182 39.9249 170.901 39.9742C170.115 40.1143 169.363 40.2865 168.663 40.487C168.614 40.5001 168.566 40.5072 168.518 40.5072ZM180.186 39.6962C180.167 39.6962 180.147 39.6952 180.128 39.6932C179.374 39.6095 178.599 39.5521 177.821 39.5249C177.535 39.5148 177.313 39.2781 177.323 38.997C177.333 38.7159 177.576 38.4923 177.857 38.5064C178.662 38.5356 179.464 38.594 180.243 38.6807C180.526 38.7119 180.731 38.9648 180.699 39.2438C180.669 39.5048 180.445 39.6962 180.186 39.6962ZM173.139 39.667C172.876 39.667 172.651 39.4705 172.625 39.2066C172.597 38.9265 172.805 38.6776 173.089 38.6504C173.857 38.5769 174.658 38.5275 175.471 38.5034C175.762 38.4973 175.995 38.7159 176.003 38.997C176.011 39.2781 175.788 39.5128 175.502 39.5219C174.712 39.5451 173.934 39.5934 173.189 39.6649C173.173 39.666 173.155 39.667 173.139 39.667Z" fill="white"/>
<path d="M165.162 41.9227C165.004 41.9227 164.848 41.8522 164.747 41.7182C164.577 41.4936 164.623 41.1762 164.85 41.007C164.866 40.9949 165.259 40.7078 166.071 40.336C166.332 40.2171 166.638 40.329 166.757 40.5838C166.878 40.8387 166.765 41.142 166.506 41.2598C165.805 41.5802 165.473 41.82 165.468 41.822C165.376 41.8905 165.269 41.9227 165.162 41.9227Z" fill="white"/>
<path d="M156.302 42.6241C156.177 42.6241 156.052 42.5797 155.953 42.4911C155.95 42.4881 155.609 42.1828 154.987 41.7385C154.756 41.5733 154.704 41.2549 154.872 41.0273C155.038 40.7996 155.361 40.7482 155.593 40.9134C156.268 41.395 156.636 41.7254 156.65 41.7395C156.861 41.9299 156.875 42.2513 156.682 42.4588C156.581 42.5687 156.442 42.6241 156.302 42.6241Z" fill="white"/>
<path d="M153.021 40.4298C152.938 40.4298 152.854 40.4106 152.776 40.3693C152.003 39.9593 151.199 39.5956 150.388 39.2883C150.122 39.1876 149.989 38.8924 150.091 38.6305C150.193 38.3675 150.492 38.2365 150.758 38.3373C151.61 38.6597 152.454 39.0415 153.266 39.4727C153.517 39.6057 153.611 39.915 153.476 40.1628C153.382 40.333 153.205 40.4298 153.021 40.4298ZM148.002 38.5348C147.962 38.5348 147.922 38.5307 147.881 38.5206C147.026 38.3202 146.156 38.1791 145.296 38.0995C145.012 38.0733 144.803 37.8255 144.829 37.5454C144.855 37.2654 145.111 37.0578 145.392 37.086C146.301 37.1697 147.219 37.3188 148.12 37.5303C148.398 37.5948 148.569 37.8698 148.503 38.1439C148.447 38.3776 148.235 38.5348 148.002 38.5348ZM139.98 38.3715C139.738 38.3715 139.522 38.2033 139.473 37.9595C139.418 37.6835 139.601 37.4155 139.881 37.3621C140.79 37.1868 141.714 37.075 142.627 37.0286C142.893 37.0075 143.154 37.2301 143.17 37.5112C143.184 37.7923 142.965 38.031 142.68 38.0461C141.816 38.0895 140.942 38.1962 140.082 38.3625C140.046 38.3685 140.013 38.3715 139.98 38.3715Z" fill="white"/>
<path d="M136.15 39.5047C135.946 39.5047 135.753 39.3848 135.671 39.1873C135.563 38.9274 135.691 38.6302 135.954 38.5234C136.366 38.3582 136.784 38.2041 137.194 38.067C137.466 37.9764 137.759 38.1194 137.85 38.3854C137.941 38.6514 137.797 38.9405 137.526 39.0312C137.134 39.1621 136.736 39.3092 136.344 39.4664C136.282 39.4926 136.215 39.5047 136.15 39.5047Z" fill="white"/>
<path d="M197.009 42.6241C196.869 42.6241 196.73 42.5687 196.628 42.4588C196.435 42.2513 196.449 41.9299 196.66 41.7395C196.675 41.7254 197.042 41.395 197.717 40.9134C197.949 40.7482 198.272 40.7996 198.439 41.0273C198.606 41.2549 198.555 41.5733 198.323 41.7385C197.701 42.1818 197.36 42.4871 197.357 42.4911C197.259 42.5807 197.134 42.6241 197.009 42.6241Z" fill="white"/>
<path d="M200.301 40.4297C200.117 40.4297 199.938 40.333 199.845 40.1617C199.71 39.9139 199.805 39.6056 200.056 39.4716C200.868 39.0404 201.711 38.6586 202.563 38.3362C202.83 38.2355 203.129 38.3664 203.231 38.6294C203.333 38.8913 203.2 39.1865 202.933 39.2873C202.123 39.5945 201.318 39.9582 200.546 40.3682C200.468 40.4096 200.384 40.4297 200.301 40.4297ZM205.32 38.5347C205.086 38.5347 204.875 38.3775 204.818 38.1428C204.752 37.8688 204.924 37.5947 205.202 37.5293C206.103 37.3177 207.021 37.1686 207.93 37.085C208.212 37.0578 208.466 37.2643 208.493 37.5444C208.52 37.8244 208.31 38.0723 208.026 38.0985C207.165 38.1781 206.296 38.3191 205.441 38.5196C205.4 38.5307 205.36 38.5347 205.32 38.5347ZM213.342 38.3715C213.309 38.3715 213.275 38.3685 213.241 38.3624C212.381 38.1962 211.506 38.0904 210.643 38.0461C210.358 38.032 210.138 37.7922 210.153 37.5111C210.168 37.23 210.425 37.0074 210.696 37.0286C211.609 37.0749 212.532 37.1867 213.442 37.362C213.722 37.4164 213.905 37.6834 213.85 37.9594C213.8 38.2022 213.584 38.3715 213.342 38.3715Z" fill="white"/>
<path d="M217.173 39.5047C217.108 39.5047 217.043 39.4926 216.978 39.4664C216.586 39.3082 216.188 39.1621 215.797 39.0312C215.526 38.9405 215.382 38.6514 215.472 38.3854C215.564 38.1194 215.858 37.9764 216.128 38.067C216.539 38.2051 216.956 38.3582 217.368 38.5234C217.631 38.6292 217.759 38.9264 217.651 39.1873C217.57 39.3848 217.377 39.5047 217.173 39.5047Z" fill="white"/>
<path d="M176.666 79.042C176.38 79.042 176.148 78.8143 176.148 78.5322V44.1732C176.148 43.8921 176.379 43.6634 176.666 43.6634C176.952 43.6634 177.183 43.8911 177.183 44.1732V78.5322C177.183 78.8133 176.951 79.042 176.666 79.042Z" fill="#3D3D3D"/>
<path d="M59.4824 71.3182C61.1338 71.3182 62.6089 71.6893 63.9077 72.4315C65.2251 73.1736 66.3569 74.2313 67.3032 75.6043C68.2681 76.9588 69.0195 78.5545 69.5576 80.3914C70.1143 82.2283 70.4483 84.2322 70.5596 86.4031H73.1201V93.3333H70.0586C69.4649 95.8939 68.4351 98.1761 66.9693 100.18C65.5034 102.184 63.5181 103.872 61.0132 105.245C58.5269 106.637 55.4282 107.695 51.7173 108.418L49.3794 102.1C51.8843 101.618 54.1387 100.969 56.1426 100.152C58.1465 99.3358 59.8071 98.3524 61.1245 97.202C62.4605 96.0701 63.3511 94.7806 63.7964 93.3333H60.5122C56.8569 93.3333 54.083 92.5818 52.1904 91.0789C50.3164 89.5574 49.3794 87.1639 49.3794 83.8983C49.3794 82.5252 49.5835 81.1058 49.9917 79.64C50.4185 78.1741 51.0493 76.8104 51.8843 75.5486C52.7378 74.2869 53.7954 73.2664 55.0571 72.4871C56.3374 71.7078 57.8125 71.3182 59.4824 71.3182ZM60.4009 86.4031H64.4644C64.3716 85.2527 64.2046 84.1766 63.9634 83.1746C63.7407 82.1727 63.4253 81.2913 63.0171 80.5306C62.6275 79.7698 62.1358 79.1854 61.542 78.7772C60.9483 78.3504 60.2432 78.137 59.4268 78.137C58.4434 78.137 57.6641 78.4525 57.0889 79.0833C56.5137 79.7142 56.1055 80.4564 55.8643 81.3099C55.6231 82.1634 55.5025 82.9427 55.5025 83.6478C55.5025 84.761 55.9292 85.5032 56.7827 85.8743C57.6362 86.2269 58.8423 86.4031 60.4009 86.4031ZM79.5478 67.1434C80.9765 68.034 82.3495 68.9339 83.6669 69.8431C85.0029 70.7337 86.246 71.6614 87.3964 72.6263C88.5468 73.5726 89.5488 74.5745 90.4023 75.6321C91.2743 76.6712 91.9516 77.7752 92.434 78.9442C92.9164 80.1131 93.1576 81.3748 93.1576 82.7293C93.1576 85.4197 92.5453 87.535 91.3207 89.075C90.0961 90.6151 88.3149 91.7098 85.977 92.3592C83.6576 93.0086 80.8466 93.3333 77.5439 93.3333H70.7529V86.4031H77.516C79.6498 86.4031 81.4032 86.3011 82.7763 86.097C84.1679 85.8743 85.1977 85.494 85.8656 84.9559C86.5336 84.3992 86.8676 83.6199 86.8676 82.618C86.8676 81.9315 86.5707 81.2171 85.977 80.4749C85.4018 79.7327 84.6318 78.972 83.6669 78.1927C82.7021 77.4134 81.6445 76.6341 80.4941 75.8548C79.3437 75.0755 78.1933 74.3055 77.0429 73.5447C75.8925 72.784 74.8534 72.0511 73.9257 71.346C73.2206 70.8079 72.6825 70.1307 72.3114 69.3143C71.9404 68.4979 71.7548 67.6722 71.7548 66.8372C71.7548 65.8909 71.9867 65.0096 72.4506 64.1932C72.9145 63.3582 73.6288 62.7459 74.5937 62.3563L95.5234 53.8397V60.6585L79.5478 67.1434ZM112.805 93.3333C111.804 93.3333 110.913 93.2127 110.134 92.9715C109.354 92.7303 108.714 92.452 108.213 92.1365C107.805 94.8084 106.942 97.2576 105.625 99.4842C104.326 101.729 102.535 103.613 100.253 105.134C97.971 106.674 95.16 107.769 91.8201 108.418L89.4823 102.128C92.284 101.516 94.6312 100.662 96.5238 99.5677C98.4163 98.4915 99.845 97.0999 100.81 95.3929C101.775 93.7044 102.257 91.6541 102.257 89.242C102.257 87.5906 102.025 85.7816 101.561 83.8148C101.097 81.848 100.559 79.9647 99.9471 78.1649L106.348 76.0496L107.907 82.1727C108.26 83.5086 108.788 84.5477 109.493 85.2899C110.217 86.032 111.219 86.4031 112.499 86.4031H113.557V93.3333H112.805ZM126.581 55.4818L131.229 60.1297L126.581 64.7498L121.961 60.1297L126.581 55.4818ZM126.803 75.0477C126.21 75.0477 125.579 75.2796 124.911 75.7435C124.261 76.1888 123.705 76.7454 123.241 77.4134C122.796 78.0814 122.573 78.7401 122.573 79.3895C122.573 80.1502 122.796 80.9109 123.241 81.6717C123.705 82.4139 124.261 83.0911 124.911 83.7034C125.579 84.3157 126.228 84.7889 126.859 85.1229C127.583 84.7703 128.269 84.2972 128.919 83.7034C129.587 83.0911 130.134 82.4046 130.561 81.6439C130.988 80.8831 131.201 80.1131 131.201 79.3338C131.201 78.6844 130.96 78.035 130.477 77.3856C130.013 76.7361 129.438 76.1888 128.752 75.7435C128.065 75.2796 127.416 75.0477 126.803 75.0477ZM137.407 79.3338C137.407 80.2059 137.305 81.0316 137.101 81.8109C136.916 82.5901 136.628 83.3509 136.239 84.0931C135.867 84.8353 135.385 85.5867 134.791 86.3475C135.237 86.366 135.645 86.3846 136.016 86.4031C136.405 86.4031 136.758 86.4031 137.073 86.4031C137.407 86.4031 137.723 86.4031 138.02 86.4031H140.692V93.3333H137.352C136.443 93.3333 135.394 93.2498 134.207 93.0828C133.019 92.8973 131.785 92.6468 130.505 92.3314C129.225 92.0159 127.982 91.6448 126.776 91.2181C125.532 91.6634 124.252 92.0438 122.935 92.3592C121.617 92.6561 120.346 92.8973 119.122 93.0828C117.897 93.2498 116.802 93.3333 115.838 93.3333H111.218V86.4031H115.281C115.652 86.4031 116.014 86.4031 116.366 86.4031C116.719 86.4031 117.099 86.3939 117.508 86.3753C117.934 86.3568 118.398 86.3382 118.899 86.3196C118.343 85.5589 117.869 84.8074 117.48 84.0652C117.109 83.3045 116.821 82.5345 116.617 81.7552C116.431 80.9573 116.339 80.1317 116.339 79.2781C116.339 77.9422 116.626 76.6341 117.201 75.3538C117.795 74.055 118.584 72.8768 119.567 71.8192C120.551 70.7615 121.664 69.9266 122.907 69.3143C124.15 68.6834 125.44 68.368 126.776 68.368C128.149 68.368 129.466 68.6834 130.728 69.3143C132.008 69.9266 133.149 70.7615 134.151 71.8192C135.153 72.8582 135.942 74.0272 136.517 75.326C137.111 76.6248 137.407 77.9608 137.407 79.3338ZM157.751 93.3333C155.766 93.3333 154.161 92.9993 152.936 92.3314C151.712 91.6448 150.719 90.7171 149.958 89.5482C148.993 90.7357 147.815 91.6634 146.423 92.3314C145.05 92.9993 143.214 93.3333 140.913 93.3333H138.352V86.4031H140.968C142.416 86.4031 143.585 86.2733 144.475 86.0135C145.366 85.7537 146.015 85.262 146.423 84.5384C146.85 83.8148 147.064 82.7571 147.064 81.3655C147.064 81.0687 147.045 80.6326 147.008 80.0574C146.989 79.4822 146.952 78.8328 146.897 78.1092C146.859 77.3856 146.804 76.6619 146.73 75.9383L152.853 75.1868L153.381 82.0613C153.474 83.4158 153.882 84.4827 154.606 85.262C155.33 86.0228 156.397 86.4031 157.807 86.4031C159.514 86.4031 160.655 86.0042 161.23 85.2064C161.824 84.4085 162.121 83.1282 162.121 81.3655C162.121 81.0687 162.102 80.6326 162.065 80.0574C162.047 79.4822 162.009 78.8328 161.954 78.1092C161.917 77.3856 161.861 76.6619 161.787 75.9383L167.91 75.1868L168.439 82.0613C168.513 83.3416 168.838 84.39 169.413 85.2064C169.988 86.0042 170.943 86.4031 172.279 86.4031C173.133 86.4031 173.801 86.1805 174.283 85.7352C174.766 85.2713 175.109 84.6683 175.313 83.9261C175.517 83.1653 175.619 82.3397 175.619 81.449C175.619 80.4471 175.536 79.4173 175.369 78.3597C175.202 77.3021 175.016 76.3279 174.812 75.4373C174.608 74.5281 174.441 73.8416 174.311 73.3777L180.573 71.68C180.926 73.053 181.214 74.5189 181.436 76.0775C181.677 77.636 181.798 79.1854 181.798 80.7254C181.798 82.9149 181.501 84.9744 180.907 86.9041C180.314 88.8152 179.33 90.3646 177.957 91.5521C176.584 92.7396 174.701 93.3333 172.307 93.3333C170.6 93.3333 169.181 92.9808 168.049 92.2757C166.936 91.5706 166.008 90.6522 165.266 89.5203C164.282 90.7078 163.178 91.6448 161.954 92.3314C160.729 92.9993 159.328 93.3333 157.751 93.3333Z" fill="#007DF0"/>
<path d="M132.779 62.0405C132.779 63.1823 132.669 64.2915 132.459 65.3681H98.4C98.1899 64.2915 98.0807 63.1742 98.0807 62.0405C98.0807 60.0668 98.4168 58.1664 99.0219 56.3966C101.366 49.6191 107.829 44.75 115.425 44.75C123.022 44.75 129.484 49.6191 131.829 56.3966C132.451 58.1664 132.779 60.0668 132.779 62.0405Z" fill="#FF8F00"/>
</svg>
