<svg width="30" height="29" viewBox="0 0 30 29" fill="none" xmlns="http://www.w3.org/2000/svg">
<path d="M19.3638 6.64608V18.9227C19.3638 19.4061 19.2188 19.8773 18.9529 20.2761L15.6542 25.1819C15.1346 25.9673 13.8417 26.5232 12.7421 26.1123C11.5579 25.7136 10.7725 24.3844 11.0263 23.2002L11.6546 19.249C11.7029 18.8865 11.6063 18.5602 11.4009 18.3065C11.1954 18.0769 10.8934 17.9319 10.5671 17.9319H5.60085C4.64627 17.9319 3.8246 17.5452 3.34127 16.8686C2.8821 16.2161 2.79752 15.3702 3.0996 14.5123L6.0721 5.46191C6.44669 3.96358 8.07794 2.74316 9.6971 2.74316H14.4096C15.2192 2.74316 16.355 3.02108 16.8746 3.54066L18.4213 4.73691C19.0134 5.19608 19.3638 5.89691 19.3638 6.64608Z" fill="#FF8F00"/>
<path d="M23.2045 21.2788H24.4491C26.322 21.2788 27.0832 20.5538 27.0832 18.7655V6.62173C27.0832 4.8334 26.322 4.1084 24.4491 4.1084H23.2045C21.3316 4.1084 20.5703 4.8334 20.5703 6.62173V18.7776C20.5703 20.5538 21.3316 21.2788 23.2045 21.2788Z" fill="#FF8F00"/>
</svg>
