<svg width="30" height="29" viewBox="0 0 30 29" fill="none" xmlns="http://www.w3.org/2000/svg">
<path d="M10.6367 22.3416V10.065C10.6367 9.58164 10.7817 9.11039 11.0476 8.71164L14.3463 3.8058C14.8659 3.02039 16.1588 2.46455 17.2584 2.87539C18.4426 3.27414 19.228 4.6033 18.9742 5.78747L18.3459 9.73872C18.2976 10.1012 18.3942 10.4275 18.5996 10.6812C18.8051 10.9108 19.1071 11.0558 19.4334 11.0558H24.3996C25.3542 11.0558 26.1759 11.4425 26.6592 12.1191C27.1184 12.7716 27.203 13.6175 26.9009 14.4754L23.9284 23.5258C23.5538 25.0241 21.9226 26.2446 20.3034 26.2446H15.5909C14.7813 26.2446 13.6455 25.9666 13.1259 25.4471L11.5792 24.2508C10.9871 23.8037 10.6367 23.0908 10.6367 22.3416Z" fill="#00DD16"/>
<path d="M6.79672 7.70898H5.55214C3.67922 7.70898 2.91797 8.43398 2.91797 10.2223V22.3782C2.91797 24.1665 3.67922 24.8915 5.55214 24.8915H6.79672C8.66964 24.8915 9.43089 24.1665 9.43089 22.3782V10.2223C9.43089 8.43398 8.66964 7.70898 6.79672 7.70898Z" fill="#00DD16"/>
</svg>
