<svg width="19" height="19" viewBox="0 0 19 19" fill="none" xmlns="http://www.w3.org/2000/svg">
<path d="M15.7831 16.3475C15.6331 16.3475 15.4906 16.2875 15.3856 16.1825L10.6006 11.3975C10.3831 11.18 10.3831 10.82 10.6006 10.6025L16.3981 4.80501C16.5406 4.66251 16.7581 4.61001 16.9531 4.66251C17.1481 4.72251 17.2981 4.88001 17.3431 5.07501C17.4856 5.71251 17.5606 6.425 17.5606 7.25V11.75C17.5606 13.8275 17.1256 15.23 16.1806 16.1825C16.0756 16.2875 15.9181 16.31 15.7831 16.3475ZM11.7931 11L15.7381 14.945C16.2106 14.2175 16.4356 13.1825 16.4356 11.75V7.25C16.4356 6.9425 16.4281 6.65751 16.4056 6.38751L11.7931 11Z" fill="#131313"/>
<path d="M5.20249 17.36C5.15749 17.36 5.12 17.3525 5.075 17.345C2.5925 16.775 1.4375 14.9975 1.4375 11.75V7.25C1.4375 3.1775 3.1775 1.4375 7.25 1.4375H11.75C14.9975 1.4375 16.775 2.5925 17.345 5.075C17.39 5.2625 17.33 5.465 17.195 5.6L5.59999 17.195C5.49499 17.3 5.35249 17.36 5.20249 17.36ZM7.25 2.5625C3.7925 2.5625 2.5625 3.7925 2.5625 7.25V11.75C2.5625 14.3525 3.28251 15.6575 5.03001 16.175L16.1675 5.0375C15.6575 3.29 14.345 2.57 11.7425 2.57H7.25V2.5625Z" fill="#131313"/>
<path d="M11.7513 17.5626H7.25126C6.42626 17.5626 5.72126 17.4951 5.07626 17.3451C4.87376 17.3001 4.71625 17.1501 4.66375 16.9551C4.60375 16.7601 4.66375 16.5501 4.80625 16.4001L10.6038 10.6026C10.8213 10.3851 11.1813 10.3851 11.3988 10.6026L16.1838 15.3876C16.2888 15.4926 16.3488 15.6351 16.3488 15.7851C16.3488 15.9351 16.2888 16.0776 16.1838 16.1826C15.2313 17.1276 13.8288 17.5626 11.7513 17.5626ZM6.38876 16.4076C6.65876 16.4301 6.94376 16.4376 7.25126 16.4376H11.7513C13.1913 16.4376 14.2188 16.2126 14.9463 15.7401L11.0013 11.7951L6.38876 16.4076Z" fill="#353535"/>
<path d="M7.33825 10.4825C6.86575 10.4825 6.39324 10.31 6.01824 9.95753C4.82574 8.82503 4.34576 7.58004 4.63076 6.36504C4.91576 5.12004 6.00325 4.28003 7.33825 4.28003C8.67325 4.28003 9.76076 5.12004 10.0458 6.36504C10.3233 7.58754 9.84325 8.82503 8.65075 9.95753C8.28325 10.3025 7.81075 10.4825 7.33825 10.4825ZM5.72575 6.61253C5.48575 7.63253 6.17575 8.54754 6.79825 9.14004C7.10575 9.43254 7.57825 9.43254 7.87825 9.14004C8.49325 8.55504 9.18324 7.64003 8.95074 6.61253C8.74824 5.72003 7.95325 5.39753 7.33825 5.39753C6.72325 5.39753 5.93575 5.72003 5.72575 6.61253Z" fill="#353535"/>
<path d="M7.36328 7.61743C6.95078 7.61743 6.61328 7.27993 6.61328 6.86743C6.61328 6.45493 6.94328 6.11743 7.36328 6.11743H7.37079C7.78329 6.11743 8.12079 6.45493 8.12079 6.86743C8.12079 7.27993 7.77578 7.61743 7.36328 7.61743Z" fill="#353535"/>
</svg>
