<svg width="19" height="18" viewBox="0 0 19 18" fill="none" xmlns="http://www.w3.org/2000/svg">
<path d="M15.7698 9.54749C15.4923 9.54749 15.2598 9.33749 15.2298 9.05999C15.0498 7.40999 14.1648 5.92499 12.7998 4.97999C12.5523 4.80749 12.4923 4.46999 12.6648 4.22249C12.8373 3.97499 13.1748 3.91499 13.4223 4.08749C15.0498 5.21999 16.0998 6.98999 16.3173 8.94749C16.3473 9.24749 16.1298 9.51749 15.8298 9.54749C15.8073 9.54749 15.7923 9.54749 15.7698 9.54749Z" fill="#007DF0"/>
<path d="M3.30448 9.58503C3.28948 9.58503 3.26698 9.58503 3.25198 9.58503C2.95198 9.55503 2.73448 9.28503 2.76448 8.98503C2.96698 7.02753 4.00198 5.25753 5.61448 4.11753C5.85448 3.94503 6.19948 4.00503 6.37198 4.24503C6.54448 4.49253 6.48448 4.83003 6.24448 5.00253C4.89448 5.96253 4.01698 7.44753 3.85198 9.09003C3.82198 9.37503 3.58198 9.58503 3.30448 9.58503Z" fill="#007DF0"/>
<path d="M12.4934 15.825C11.5709 16.2675 10.5809 16.4925 9.54593 16.4925C8.46593 16.4925 7.43843 16.2525 6.47843 15.765C6.20843 15.6375 6.10343 15.3075 6.23843 15.0375C6.36593 14.7675 6.69593 14.6625 6.96593 14.79C7.43843 15.03 7.94093 15.195 8.45093 15.2925C9.14093 15.4275 9.84593 15.435 10.5359 15.315C11.0459 15.225 11.5484 15.0675 12.0134 14.8425C12.2909 14.715 12.6209 14.82 12.7409 15.0975C12.8759 15.3675 12.7709 15.6975 12.4934 15.825Z" fill="#007DF0"/>
<path d="M9.53688 1.50751C8.37438 1.50751 7.42188 2.45251 7.42188 3.62251C7.42188 4.79251 8.36688 5.73751 9.53688 5.73751C10.7069 5.73751 11.6519 4.79251 11.6519 3.62251C11.6519 2.45251 10.7069 1.50751 9.53688 1.50751Z" fill="#007DF0"/>
<path d="M4.28688 10.4025C3.12438 10.4025 2.17188 11.3475 2.17188 12.5175C2.17188 13.6875 3.11688 14.6325 4.28688 14.6325C5.45688 14.6325 6.40188 13.6875 6.40188 12.5175C6.40188 11.3475 5.44938 10.4025 4.28688 10.4025Z" fill="#007DF0"/>
<path d="M14.7127 10.4025C13.5502 10.4025 12.5977 11.3475 12.5977 12.5175C12.5977 13.6875 13.5427 14.6325 14.7127 14.6325C15.8827 14.6325 16.8277 13.6875 16.8277 12.5175C16.8277 11.3475 15.8827 10.4025 14.7127 10.4025Z" fill="#007DF0"/>
</svg>
