<svg width="24" height="25" viewBox="0 0 24 25" fill="none" xmlns="http://www.w3.org/2000/svg">
<path d="M9.57141 19.3206C9.38141 19.3206 9.19141 19.2506 9.04141 19.1006L2.97141 13.0306C2.68141 12.7406 2.68141 12.2606 2.97141 11.9706L9.04141 5.90061C9.33141 5.61061 9.81141 5.61061 10.1014 5.90061C10.3914 6.19061 10.3914 6.67061 10.1014 6.96061L4.56141 12.5006L10.1014 18.0406C10.3914 18.3306 10.3914 18.8106 10.1014 19.1006C9.96141 19.2506 9.76141 19.3206 9.57141 19.3206Z" fill="#3D3D3D"/>
<path d="M20.5019 13.2505H3.67188C3.26188 13.2505 2.92188 12.9105 2.92188 12.5005C2.92188 12.0905 3.26188 11.7505 3.67188 11.7505H20.5019C20.9119 11.7505 21.2519 12.0905 21.2519 12.5005C21.2519 12.9105 20.9119 13.2505 20.5019 13.2505Z" fill="#3D3D3D"/>
</svg>
