<svg width="24" height="25" viewBox="0 0 24 25" fill="none" xmlns="http://www.w3.org/2000/svg">
<path d="M14.4311 19.3206C14.2411 19.3206 14.0511 19.2506 13.9011 19.1006C13.6111 18.8106 13.6111 18.3306 13.9011 18.0406L19.4411 12.5006L13.9011 6.96061C13.6111 6.67061 13.6111 6.19061 13.9011 5.90061C14.1911 5.61061 14.6711 5.61061 14.9611 5.90061L21.0311 11.9706C21.3211 12.2606 21.3211 12.7406 21.0311 13.0306L14.9611 19.1006C14.8111 19.2506 14.6211 19.3206 14.4311 19.3206Z" fill="#3D3D3D"/>
<path d="M20.33 13.2505H3.5C3.09 13.2505 2.75 12.9105 2.75 12.5005C2.75 12.0905 3.09 11.7505 3.5 11.7505H20.33C20.74 11.7505 21.08 12.0905 21.08 12.5005C21.08 12.9105 20.74 13.2505 20.33 13.2505Z" fill="#3D3D3D"/>
</svg>
