<svg width="44" height="44" viewBox="0 0 44 44" fill="none" xmlns="http://www.w3.org/2000/svg">
<path d="M21.9974 41.7084C11.1257 41.7084 2.28906 32.8717 2.28906 22C2.28906 11.1284 11.1257 2.29169 21.9974 2.29169C32.8691 2.29169 41.7057 11.1284 41.7057 22C41.7057 32.8717 32.8691 41.7084 21.9974 41.7084ZM21.9974 5.04169C12.6474 5.04169 5.03906 12.65 5.03906 22C5.03906 31.35 12.6474 38.9584 21.9974 38.9584C31.3474 38.9584 38.9557 31.35 38.9557 22C38.9557 12.65 31.3474 5.04169 21.9974 5.04169Z" fill="#797979"/>
<path d="M16.8079 28.5633C16.4596 28.5633 16.1113 28.435 15.8363 28.16C15.3046 27.6283 15.3046 26.7483 15.8363 26.2166L26.2129 15.84C26.7446 15.3083 27.6246 15.3083 28.1562 15.84C28.6879 16.3716 28.6879 17.2516 28.1562 17.7833L17.7796 28.16C17.5229 28.435 17.1562 28.5633 16.8079 28.5633Z" fill="#797979"/>
<path d="M27.1846 28.5633C26.8363 28.5633 26.4879 28.435 26.2129 28.16L15.8363 17.7833C15.3046 17.2516 15.3046 16.3716 15.8363 15.84C16.3679 15.3083 17.2479 15.3083 17.7796 15.84L28.1562 26.2166C28.6879 26.7483 28.6879 27.6283 28.1562 28.16C27.8813 28.435 27.5329 28.5633 27.1846 28.5633Z" fill="#797979"/>
</svg>
