<svg width="79" height="80" viewBox="0 0 79 80" fill="none" xmlns="http://www.w3.org/2000/svg">
<rect x="0.5" y="1" width="78" height="78" rx="39" fill="#9DDAF9"/>
<rect x="0.5" y="1" width="78" height="78" rx="39" stroke="#1EB5FF"/>
<path d="M57.0021 21.6277C53.3169 24.3738 52.5078 33.3205 52.5078 33.3205C54.0358 31.8146 57.0021 31.8495 57.0021 31.8495C57.0021 31.8495 59.9685 31.8146 61.4964 33.3205C61.4964 33.3205 60.6874 24.3738 57.0021 21.6277Z" fill="#03C9C9"/>
<path d="M56.9976 21.6277C56.9976 21.6277 47.8968 21.4285 45.1328 32.0251C45.1328 32.0251 49.0205 29.9988 52.5033 33.3205C52.5033 33.3205 53.3124 24.3738 56.9976 21.6277Z" fill="#FF8F00"/>
<path d="M57 21.6277C57 21.6277 66.1009 21.4285 68.8648 32.0251C68.8648 32.0251 64.9772 29.9988 61.4943 33.3205C61.4943 33.3205 60.6853 24.3738 57 21.6277Z" fill="#F2DB06"/>
<path d="M57.0015 21.6278C57.0015 21.6278 57.3807 21.6197 58.0073 21.6964C58.0089 21.6735 58.0108 21.6509 58.0108 21.6278C58.0108 21.0785 57.5588 20.6331 57.0015 20.6331C56.4442 20.6331 55.9922 21.0785 55.9922 21.6278C55.9922 21.6509 55.9941 21.6735 55.9957 21.6964C56.6223 21.6197 57.0015 21.6278 57.0015 21.6278Z" fill="white"/>
<path d="M61.498 33.4536C61.4631 33.4536 61.4284 33.4402 61.4028 33.4147C59.9327 31.9658 57.0309 31.9823 57.0056 31.9826C56.9752 31.9818 54.0747 31.9663 52.6051 33.4147C52.5649 33.4541 52.5038 33.4646 52.4529 33.441C52.4014 33.4173 52.3705 33.3645 52.3755 33.3088C52.4089 32.9411 53.2323 24.2717 56.9226 21.5219C56.9709 21.4861 57.0373 21.4861 57.0853 21.5219C60.7756 24.2719 61.5991 32.9411 61.6324 33.3088C61.6375 33.3645 61.6065 33.4173 61.5551 33.441C61.5367 33.4494 61.5172 33.4536 61.498 33.4536ZM57.0037 21.7957C53.8779 24.233 52.8745 31.34 52.6811 32.9887C54.2763 31.7003 56.8885 31.7151 57.0053 31.7166C57.1184 31.7148 59.7308 31.7003 61.3263 32.9887C61.1327 31.34 60.1287 24.2328 57.0037 21.7957Z" fill="#3D3D3D"/>
<path d="M52.5057 33.4536C52.4713 33.4536 52.4374 33.4407 52.4118 33.4162C49.038 30.1984 45.236 32.1229 45.1981 32.1426C45.1509 32.1673 45.0933 32.1621 45.0514 32.1295C45.0096 32.0969 44.9909 32.043 45.0042 31.9921C46.4448 26.4693 49.6276 23.909 52.0441 22.7337C54.6638 21.4593 56.9077 21.4921 57.0027 21.495C57.06 21.4964 57.1101 21.5331 57.128 21.587C57.1456 21.6409 57.1269 21.6998 57.0811 21.7339C53.4854 24.4133 52.6481 33.2436 52.6401 33.3324C52.6356 33.3834 52.6014 33.4273 52.5529 33.4451C52.5374 33.4507 52.5217 33.4536 52.5057 33.4536ZM47.9477 31.2898C49.2628 31.2898 50.8663 31.6722 52.3988 33.0399C52.562 31.5455 53.4843 24.5 56.6069 21.7739C55.8504 21.8212 54.0878 22.0335 52.1524 22.9776C49.8303 24.11 46.7826 26.5566 45.3378 31.7902C45.781 31.6107 46.7434 31.2898 47.9477 31.2898Z" fill="#3D3D3D"/>
<path d="M61.496 33.4536C61.4803 33.4536 61.4643 33.4509 61.4491 33.4452C61.4003 33.4273 61.3664 33.3834 61.3619 33.3324C61.3539 33.2436 60.5157 24.4128 56.9206 21.7337C56.875 21.6995 56.8561 21.6406 56.8737 21.5868C56.8913 21.5329 56.9417 21.4961 56.999 21.4948C57.0937 21.4916 59.3374 21.4588 61.9576 22.7334C64.3741 23.9087 67.5569 26.4691 68.9974 31.9918C69.0108 32.0428 68.9921 32.0964 68.9502 32.1293C68.9084 32.1618 68.8508 32.1668 68.8038 32.1424C68.7657 32.1227 64.9591 30.2028 61.5899 33.416C61.564 33.4404 61.5304 33.4536 61.496 33.4536ZM57.3947 21.7739C60.5176 24.5003 61.4397 31.5463 61.6029 33.0399C64.5386 30.4202 67.7364 31.4149 68.6638 31.79C67.2191 26.5566 64.1714 24.11 61.8493 22.9773C59.9142 22.0336 58.1515 21.8212 57.3947 21.7739Z" fill="#3D3D3D"/>
<path d="M55.9975 21.8293C55.9663 21.8293 55.9359 21.8188 55.9119 21.7988C55.8834 21.7757 55.8658 21.7418 55.8631 21.7055C55.861 21.6742 55.8594 21.6511 55.8594 21.6277C55.8594 21.0059 56.3727 20.5 57.0036 20.5C57.6345 20.5 58.1479 21.0059 58.1479 21.6277C58.1479 21.6511 58.1463 21.674 58.1447 21.6971C58.1423 21.7334 58.1241 21.7715 58.0956 21.7949C58.0671 21.818 58.0295 21.8335 57.9929 21.8285C57.3855 21.7541 57.01 21.7605 57.0066 21.761C57.0047 21.761 57.0026 21.761 57.0007 21.761C56.9975 21.7607 56.622 21.7541 56.0143 21.8285C56.0084 21.8288 56.0028 21.8293 55.9975 21.8293ZM57.0034 20.766C56.5487 20.766 56.174 21.1095 56.1327 21.547C56.6511 21.4908 56.9674 21.4942 57.0034 21.495C57.0399 21.4942 57.3561 21.4908 57.874 21.547C57.8327 21.1095 57.458 20.766 57.0034 20.766Z" fill="#3D3D3D"/>
<path d="M60.0008 31.2627C59.9779 31.2627 59.9544 31.2569 59.9328 31.2446C59.932 31.2441 59.8323 31.187 59.6448 31.109C59.5763 31.0803 59.5443 31.0025 59.5731 30.935C59.6021 30.8675 59.6805 30.8357 59.7499 30.8643C59.9555 30.95 60.0648 31.0128 60.0693 31.0154C60.1333 31.0525 60.1549 31.1339 60.1173 31.197C60.0923 31.2393 60.0472 31.2627 60.0008 31.2627Z" fill="white"/>
<path d="M59.1229 30.9179C59.1104 30.9179 59.0976 30.9161 59.0848 30.9124C58.8971 30.858 58.7006 30.8104 58.5008 30.7718C58.4278 30.7576 58.3803 30.6877 58.3947 30.6157C58.4094 30.5436 58.4803 30.4966 58.5531 30.5111C58.7611 30.5515 58.9656 30.6007 59.1611 30.6577C59.2325 30.6785 59.2733 30.7523 59.2523 30.8228C59.2349 30.8803 59.1813 30.9179 59.1229 30.9179ZM54.8769 30.8932C54.8182 30.8932 54.7644 30.8553 54.7476 30.7973C54.7268 30.7268 54.7681 30.653 54.8396 30.6325C55.031 30.5778 55.2366 30.5308 55.4508 30.4927C55.5252 30.479 55.5942 30.5276 55.6076 30.5999C55.6206 30.6722 55.5721 30.7413 55.4988 30.7542C55.2937 30.7907 55.0974 30.8356 54.9148 30.8879C54.902 30.8913 54.8894 30.8932 54.8769 30.8932ZM57.9208 30.6816C57.9158 30.6816 57.9107 30.6814 57.9056 30.6808C57.7091 30.659 57.5067 30.644 57.3038 30.6369C57.2294 30.6343 57.1713 30.5726 57.1739 30.4992C57.1766 30.4259 57.24 30.3676 57.3134 30.3712C57.5232 30.3789 57.7326 30.3941 57.9358 30.4167C58.0096 30.4249 58.063 30.4908 58.0547 30.5636C58.0467 30.6317 57.9883 30.6816 57.9208 30.6816ZM56.0825 30.674C56.0139 30.674 55.9553 30.6228 55.9483 30.5539C55.9411 30.4808 55.9953 30.4159 56.0694 30.4088C56.2697 30.3896 56.4787 30.3768 56.6907 30.3705C56.7667 30.3689 56.8275 30.4259 56.8297 30.4992C56.8318 30.5726 56.7734 30.6338 56.699 30.6362C56.4929 30.6422 56.2899 30.6548 56.0955 30.6735C56.0913 30.6737 56.0867 30.674 56.0825 30.674Z" fill="white"/>
<path d="M54.0022 31.2625C53.9611 31.2625 53.9203 31.2441 53.8939 31.2091C53.8496 31.1505 53.8616 31.0677 53.9208 31.0236C53.9251 31.0204 54.0275 30.9455 54.2392 30.8485C54.3075 30.8175 54.3872 30.8467 54.4184 30.9132C54.4499 30.9797 54.4203 31.0588 54.3528 31.0895C54.1699 31.1731 54.0832 31.2357 54.0821 31.2362C54.0581 31.254 54.0301 31.2625 54.0022 31.2625Z" fill="white"/>
<path d="M51.6878 31.4454C51.6552 31.4454 51.6227 31.4338 51.5968 31.4107C51.596 31.4099 51.507 31.3303 51.3448 31.2144C51.2846 31.1713 51.271 31.0882 51.3147 31.0288C51.3582 30.9695 51.4424 30.9561 51.503 30.9992C51.679 31.1248 51.775 31.211 51.7787 31.2147C51.8336 31.2643 51.8374 31.3482 51.787 31.4023C51.7606 31.431 51.7243 31.4454 51.6878 31.4454Z" fill="white"/>
<path d="M50.8335 30.873C50.8119 30.873 50.79 30.868 50.7698 30.8572C50.5682 30.7502 50.3583 30.6554 50.1468 30.5752C50.0772 30.5489 50.0426 30.4719 50.0692 30.4036C50.0959 30.335 50.1738 30.3008 50.2434 30.3271C50.4655 30.4112 50.6858 30.5108 50.8975 30.6233C50.9631 30.658 50.9876 30.7387 50.9524 30.8033C50.9279 30.8477 50.8815 30.873 50.8335 30.873ZM49.5242 30.3786C49.5138 30.3786 49.5034 30.3776 49.4927 30.3749C49.2698 30.3226 49.0429 30.2858 48.8183 30.2651C48.7442 30.2583 48.6898 30.1936 48.6965 30.1205C48.7034 30.0475 48.7701 29.9933 48.8434 30.0007C49.0805 30.0225 49.3199 30.0614 49.5551 30.1166C49.6277 30.1334 49.6722 30.2052 49.6551 30.2766C49.6405 30.3376 49.585 30.3786 49.5242 30.3786ZM47.4317 30.336C47.3685 30.336 47.3122 30.2922 47.2994 30.2286C47.285 30.1565 47.3328 30.0866 47.4058 30.0727C47.6429 30.027 47.884 29.9978 48.1221 29.9857C48.1914 29.9802 48.2597 30.0383 48.2637 30.1116C48.2674 30.1849 48.2104 30.2472 48.136 30.2512C47.9106 30.2625 47.6826 30.2903 47.4581 30.3337C47.4488 30.3353 47.4402 30.336 47.4317 30.336Z" fill="white"/>
<path d="M46.4317 30.6317C46.3787 30.6317 46.3283 30.6004 46.3069 30.5489C46.2787 30.4811 46.312 30.4035 46.3808 30.3757C46.4883 30.3326 46.5971 30.2924 46.7043 30.2566C46.7752 30.233 46.8515 30.2703 46.8752 30.3397C46.8989 30.4091 46.8613 30.4845 46.7907 30.5081C46.6885 30.5423 46.5848 30.5807 46.4824 30.6217C46.4661 30.6285 46.4488 30.6317 46.4317 30.6317Z" fill="white"/>
<path d="M62.3068 31.4454C62.2703 31.4454 62.234 31.431 62.2074 31.4023C62.157 31.3482 62.1607 31.2643 62.2156 31.2147C62.2196 31.211 62.3154 31.1248 62.4914 30.9992C62.5519 30.9561 62.6362 30.9695 62.6796 31.0288C62.7234 31.0882 62.71 31.1713 62.6495 31.2144C62.4874 31.33 62.3983 31.4097 62.3975 31.4107C62.3719 31.4341 62.3394 31.4454 62.3068 31.4454Z" fill="white"/>
<path d="M63.1663 30.873C63.1183 30.873 63.0716 30.8477 63.0473 30.8031C63.0121 30.7384 63.0367 30.658 63.1023 30.623C63.314 30.5106 63.534 30.4109 63.7564 30.3268C63.826 30.3006 63.9038 30.3347 63.9305 30.4033C63.9572 30.4717 63.9225 30.5487 63.8529 30.5749C63.6414 30.6551 63.4316 30.75 63.23 30.8569C63.2097 30.8677 63.1879 30.873 63.1663 30.873ZM64.4756 30.3786C64.4145 30.3786 64.3593 30.3376 64.3446 30.2764C64.3273 30.2049 64.3721 30.1334 64.4446 30.1163C64.6798 30.0611 64.9193 30.0222 65.1563 30.0004C65.2299 29.9933 65.2961 30.0472 65.3033 30.1203C65.3102 30.1933 65.2555 30.258 65.1814 30.2648C64.9569 30.2856 64.73 30.3224 64.507 30.3747C64.4964 30.3776 64.486 30.3786 64.4756 30.3786ZM66.568 30.336C66.5595 30.336 66.5507 30.3353 66.5419 30.3337C66.3174 30.2903 66.0891 30.2627 65.8641 30.2512C65.7897 30.2475 65.7323 30.1849 65.7363 30.1116C65.7401 30.0383 65.8073 29.9802 65.8779 29.9857C66.1161 29.9978 66.3568 30.027 66.5942 30.0727C66.6672 30.0869 66.715 30.1565 66.7006 30.2286C66.6878 30.2919 66.6312 30.336 66.568 30.336Z" fill="white"/>
<path d="M67.568 30.6317C67.551 30.6317 67.5339 30.6285 67.5171 30.6217C67.4147 30.5804 67.311 30.5423 67.2088 30.5081C67.1382 30.4845 67.1006 30.4091 67.1243 30.3397C67.1483 30.2703 67.2248 30.233 67.2952 30.2566C67.4024 30.2926 67.5112 30.3326 67.6187 30.3757C67.6875 30.4033 67.7208 30.4808 67.6926 30.5489C67.6715 30.6004 67.6211 30.6317 67.568 30.6317Z" fill="white"/>
<path d="M57.0021 40.9458C56.9277 40.9458 56.8672 40.8864 56.8672 40.8128V31.8495C56.8672 31.7762 56.9275 31.7166 57.0021 31.7166C57.0768 31.7166 57.137 31.7759 57.137 31.8495V40.8128C57.137 40.8861 57.0765 40.9458 57.0021 40.9458Z" fill="#3D3D3D"/>
<path d="M23.9549 39.3203C24.4184 39.3203 24.8325 39.4245 25.1971 39.6328C25.5669 39.8411 25.8846 40.138 26.1502 40.5234C26.421 40.9036 26.632 41.3516 26.783 41.8672C26.9393 42.3828 27.033 42.9453 27.0643 43.5547H27.783V45.5H26.9236C26.757 46.2188 26.4679 46.8594 26.0564 47.4219C25.645 47.9844 25.0877 48.4583 24.3846 48.8438C23.6866 49.2344 22.8169 49.5312 21.7752 49.7344L21.1189 47.9609C21.8221 47.8255 22.4549 47.6432 23.0174 47.4141C23.5799 47.1849 24.046 46.9089 24.4158 46.5859C24.7908 46.2682 25.0408 45.9062 25.1658 45.5H24.2439C23.2179 45.5 22.4393 45.2891 21.908 44.8672C21.382 44.4401 21.1189 43.7682 21.1189 42.8516C21.1189 42.4661 21.1762 42.0677 21.2908 41.6562C21.4106 41.2448 21.5877 40.862 21.8221 40.5078C22.0616 40.1536 22.3585 39.8672 22.7127 39.6484C23.0721 39.4297 23.4861 39.3203 23.9549 39.3203ZM24.2127 43.5547H25.3533C25.3273 43.2318 25.2804 42.9297 25.2127 42.6484C25.1502 42.3672 25.0616 42.1198 24.9471 41.9062C24.8377 41.6927 24.6997 41.5286 24.533 41.4141C24.3663 41.2943 24.1684 41.2344 23.9393 41.2344C23.6632 41.2344 23.4445 41.3229 23.283 41.5C23.1215 41.6771 23.007 41.8854 22.9393 42.125C22.8715 42.3646 22.8377 42.5833 22.8377 42.7812C22.8377 43.0938 22.9575 43.3021 23.1971 43.4062C23.4366 43.5052 23.7752 43.5547 24.2127 43.5547ZM29.5872 38.1484C29.9883 38.3984 30.3737 38.651 30.7435 38.9062C31.1185 39.1562 31.4675 39.4167 31.7904 39.6875C32.1133 39.9531 32.3945 40.2344 32.6341 40.5312C32.8789 40.8229 33.069 41.1328 33.2044 41.4609C33.3399 41.7891 33.4076 42.1432 33.4076 42.5234C33.4076 43.2786 33.2357 43.8724 32.8919 44.3047C32.5482 44.737 32.0482 45.0443 31.3919 45.2266C30.7409 45.4089 29.9518 45.5 29.0247 45.5H27.1185V43.5547H29.0169C29.6159 43.5547 30.1081 43.526 30.4935 43.4688C30.8841 43.4062 31.1732 43.2995 31.3607 43.1484C31.5482 42.9922 31.6419 42.7734 31.6419 42.4922C31.6419 42.2995 31.5586 42.099 31.3919 41.8906C31.2305 41.6823 31.0143 41.4688 30.7435 41.25C30.4727 41.0312 30.1758 40.8125 29.8529 40.5938C29.53 40.375 29.207 40.1589 28.8841 39.9453C28.5612 39.7318 28.2695 39.526 28.0091 39.3281C27.8112 39.1771 27.6602 38.987 27.556 38.7578C27.4518 38.5286 27.3997 38.2969 27.3997 38.0625C27.3997 37.7969 27.4649 37.5495 27.5951 37.3203C27.7253 37.0859 27.9258 36.9141 28.1966 36.8047L34.0716 34.4141V36.3281L29.5872 38.1484ZM38.9228 45.5C38.6415 45.5 38.3915 45.4661 38.1728 45.3984C37.954 45.3307 37.7743 45.2526 37.6337 45.1641C37.5191 45.9141 37.2769 46.6016 36.9071 47.2266C36.5425 47.8568 36.0399 48.3854 35.3993 48.8125C34.7587 49.2448 33.9696 49.5521 33.0321 49.7344L32.3759 47.9688C33.1623 47.7969 33.8212 47.5573 34.3524 47.25C34.8837 46.9479 35.2847 46.5573 35.5556 46.0781C35.8264 45.6042 35.9618 45.0286 35.9618 44.3516C35.9618 43.888 35.8967 43.3802 35.7665 42.8281C35.6363 42.276 35.4853 41.7474 35.3134 41.2422L37.1103 40.6484L37.5478 42.3672C37.6467 42.7422 37.7951 43.0339 37.9931 43.2422C38.1962 43.4505 38.4774 43.5547 38.8368 43.5547H39.1337V45.5H38.9228ZM42.7895 34.875L44.0942 36.1797L42.7895 37.4766L41.4926 36.1797L42.7895 34.875ZM42.852 40.3672C42.6853 40.3672 42.5083 40.4323 42.3208 40.5625C42.1385 40.6875 41.9822 40.8438 41.852 41.0312C41.727 41.2188 41.6645 41.4036 41.6645 41.5859C41.6645 41.7995 41.727 42.013 41.852 42.2266C41.9822 42.4349 42.1385 42.625 42.3208 42.7969C42.5083 42.9688 42.6905 43.1016 42.8676 43.1953C43.0708 43.0964 43.2635 42.9635 43.4458 42.7969C43.6333 42.625 43.7869 42.4323 43.9067 42.2188C44.0265 42.0052 44.0864 41.7891 44.0864 41.5703C44.0864 41.388 44.0187 41.2057 43.8833 41.0234C43.753 40.8411 43.5916 40.6875 43.3989 40.5625C43.2062 40.4323 43.0239 40.3672 42.852 40.3672ZM45.8286 41.5703C45.8286 41.8151 45.7999 42.0469 45.7426 42.2656C45.6905 42.4844 45.6098 42.6979 45.5004 42.9062C45.3963 43.1146 45.2609 43.3255 45.0942 43.5391C45.2192 43.5443 45.3338 43.5495 45.4379 43.5547C45.5473 43.5547 45.6463 43.5547 45.7348 43.5547C45.8286 43.5547 45.9171 43.5547 46.0004 43.5547H46.7504V45.5H45.8129C45.5577 45.5 45.2635 45.4766 44.9301 45.4297C44.5968 45.3776 44.2504 45.3073 43.8911 45.2188C43.5317 45.1302 43.1827 45.026 42.8442 44.9062C42.4952 45.0312 42.1359 45.138 41.7661 45.2266C41.3963 45.3099 41.0395 45.3776 40.6958 45.4297C40.352 45.4766 40.0447 45.5 39.7739 45.5H38.477V43.5547H39.6176C39.7218 43.5547 39.8234 43.5547 39.9223 43.5547C40.0213 43.5547 40.128 43.5521 40.2426 43.5469C40.3624 43.5417 40.4926 43.5365 40.6333 43.5312C40.477 43.3177 40.3442 43.1068 40.2348 42.8984C40.1306 42.6849 40.0499 42.4688 39.9926 42.25C39.9405 42.026 39.9145 41.7943 39.9145 41.5547C39.9145 41.1797 39.9952 40.8125 40.1567 40.4531C40.3234 40.0885 40.5447 39.7578 40.8208 39.4609C41.0968 39.1641 41.4093 38.9297 41.7583 38.7578C42.1072 38.5807 42.4692 38.4922 42.8442 38.4922C43.2296 38.4922 43.5994 38.5807 43.9536 38.7578C44.3129 38.9297 44.6333 39.1641 44.9145 39.4609C45.1958 39.7526 45.4171 40.0807 45.5786 40.4453C45.7452 40.8099 45.8286 41.1849 45.8286 41.5703ZM51.5391 45.5C50.9818 45.5 50.5312 45.4062 50.1875 45.2188C49.8438 45.026 49.5651 44.7656 49.3516 44.4375C49.0807 44.7708 48.75 45.0312 48.3594 45.2188C47.974 45.4062 47.4583 45.5 46.8125 45.5H46.0938V43.5547H46.8281C47.2344 43.5547 47.5625 43.5182 47.8125 43.4453C48.0625 43.3724 48.2448 43.2344 48.3594 43.0312C48.4792 42.8281 48.5391 42.5312 48.5391 42.1406C48.5391 42.0573 48.5339 41.9349 48.5234 41.7734C48.5182 41.612 48.5078 41.4297 48.4922 41.2266C48.4818 41.0234 48.4661 40.8203 48.4453 40.6172L50.1641 40.4062L50.3125 42.3359C50.3385 42.7161 50.4531 43.0156 50.6562 43.2344C50.8594 43.4479 51.1589 43.5547 51.5547 43.5547C52.0339 43.5547 52.3542 43.4427 52.5156 43.2188C52.6823 42.9948 52.7656 42.6354 52.7656 42.1406C52.7656 42.0573 52.7604 41.9349 52.75 41.7734C52.7448 41.612 52.7344 41.4297 52.7188 41.2266C52.7083 41.0234 52.6927 40.8203 52.6719 40.6172L54.3906 40.4062L54.5391 42.3359C54.5599 42.6953 54.651 42.9896 54.8125 43.2188C54.974 43.4427 55.2422 43.5547 55.6172 43.5547C55.8568 43.5547 56.0443 43.4922 56.1797 43.3672C56.3151 43.237 56.4115 43.0677 56.4688 42.8594C56.526 42.6458 56.5547 42.4141 56.5547 42.1641C56.5547 41.8828 56.5312 41.5938 56.4844 41.2969C56.4375 41 56.3854 40.7266 56.3281 40.4766C56.2708 40.2214 56.224 40.0286 56.1875 39.8984L57.9453 39.4219C58.0443 39.8073 58.125 40.2188 58.1875 40.6562C58.2552 41.0938 58.2891 41.5286 58.2891 41.9609C58.2891 42.5755 58.2057 43.1536 58.0391 43.6953C57.8724 44.2318 57.5964 44.6667 57.2109 45C56.8255 45.3333 56.2969 45.5 55.625 45.5C55.1458 45.5 54.7474 45.401 54.4297 45.2031C54.1172 45.0052 53.8568 44.7474 53.6484 44.4297C53.3724 44.763 53.0625 45.026 52.7188 45.2188C52.375 45.4062 51.9818 45.5 51.5391 45.5Z" fill="#007DF0"/>
<path d="M45.5516 36.5106C45.5516 36.8084 45.5231 37.0978 45.4683 37.3786H36.5833C36.5285 37.0978 36.5 36.8063 36.5 36.5106C36.5 35.9957 36.5877 35.4999 36.7455 35.0382C37.3572 33.2702 39.043 32 41.0247 32C43.0065 32 44.6923 33.2702 45.3039 35.0382C45.4661 35.4999 45.5516 35.9957 45.5516 36.5106Z" fill="#FF8F00"/>
</svg>
