<svg width="58" height="31" viewBox="0 0 58 31" fill="none" xmlns="http://www.w3.org/2000/svg">
<path d="M46.0021 1.62769C42.3169 4.37382 41.5078 13.3205 41.5078 13.3205C43.0358 11.8146 46.0021 11.8495 46.0021 11.8495C46.0021 11.8495 48.9685 11.8146 50.4964 13.3205C50.4964 13.3205 49.6874 4.37382 46.0021 1.62769Z" fill="#03C9C9"/>
<path d="M45.9976 1.6277C45.9976 1.6277 36.8968 1.42849 34.1328 12.0251C34.1328 12.0251 38.0205 9.99882 41.5033 13.3205C41.5033 13.3205 42.3124 4.37384 45.9976 1.6277Z" fill="#FF8F00"/>
<path d="M46 1.6277C46 1.6277 55.1009 1.42849 57.8648 12.0251C57.8648 12.0251 53.9772 9.99882 50.4943 13.3205C50.4943 13.3205 49.6853 4.37384 46 1.6277Z" fill="#F2DB06"/>
<path d="M46.0015 1.6278C46.0015 1.6278 46.3807 1.61966 47.0073 1.6964C47.0089 1.67353 47.0108 1.65093 47.0108 1.6278C47.0108 1.07852 46.5588 0.633057 46.0015 0.633057C45.4442 0.633057 44.9922 1.07852 44.9922 1.6278C44.9922 1.65093 44.9941 1.67353 44.9957 1.6964C45.6223 1.61966 46.0015 1.6278 46.0015 1.6278Z" fill="white"/>
<path d="M50.498 13.4536C50.4631 13.4536 50.4284 13.4402 50.4028 13.4147C48.9327 11.9658 46.0309 11.9823 46.0056 11.9826C45.9752 11.9818 43.0747 11.9663 41.6051 13.4147C41.5649 13.4541 41.5038 13.4646 41.4529 13.441C41.4014 13.4173 41.3705 13.3645 41.3755 13.3088C41.4089 12.9411 42.2323 4.27168 45.9226 1.52186C45.9709 1.48612 46.0373 1.48612 46.0853 1.52186C49.7756 4.27194 50.5991 12.9411 50.6324 13.3088C50.6375 13.3645 50.6065 13.4173 50.5551 13.441C50.5367 13.4494 50.5172 13.4536 50.498 13.4536ZM46.0037 1.79571C42.8779 4.23304 41.8745 11.34 41.6811 12.9887C43.2763 11.7003 45.8885 11.7151 46.0053 11.7166C46.1184 11.7148 48.7308 11.7003 50.3263 12.9887C50.1327 11.34 49.1287 4.23278 46.0037 1.79571Z" fill="#3D3D3D"/>
<path d="M41.5057 13.4536C41.4713 13.4536 41.4374 13.4407 41.4118 13.4162C38.038 10.1984 34.236 12.1229 34.1981 12.1426C34.1509 12.1673 34.0933 12.1621 34.0514 12.1295C34.0096 12.0969 33.9909 12.043 34.0042 11.9921C35.4448 6.4693 38.6276 3.90898 41.0441 2.73368C43.6638 1.4593 45.9077 1.49215 46.0027 1.49504C46.06 1.49635 46.1101 1.53315 46.128 1.58702C46.1456 1.6409 46.1269 1.69977 46.0811 1.73394C42.4854 4.41331 41.6481 13.2436 41.6401 13.3324C41.6356 13.3834 41.6014 13.4273 41.5529 13.4451C41.5374 13.4507 41.5217 13.4536 41.5057 13.4536ZM36.9477 11.2898C38.2628 11.2898 39.8663 11.6722 41.3988 13.0399C41.562 11.5455 42.4843 4.50004 45.6069 1.77388C44.8504 1.82119 43.0878 2.03354 41.1524 2.97757C38.8303 4.11003 35.7826 6.55655 34.3378 11.7902C34.781 11.6107 35.7434 11.2898 36.9477 11.2898Z" fill="#3D3D3D"/>
<path d="M50.496 13.4536C50.4803 13.4536 50.4643 13.4509 50.4491 13.4452C50.4003 13.4273 50.3664 13.3834 50.3619 13.3324C50.3539 13.2436 49.5157 4.4128 45.9206 1.73368C45.875 1.69952 45.8561 1.64065 45.8737 1.58677C45.8913 1.5329 45.9417 1.4961 45.999 1.49479C46.0937 1.49163 48.3374 1.45878 50.9576 2.73343C53.3741 3.90873 56.5569 6.46905 57.9974 11.9918C58.0108 12.0428 57.9921 12.0964 57.9502 12.1293C57.9084 12.1618 57.8508 12.1668 57.8038 12.1424C57.7657 12.1227 53.9591 10.2028 50.5899 13.416C50.564 13.4404 50.5304 13.4536 50.496 13.4536ZM46.3947 1.77389C49.5176 4.50032 50.4397 11.5463 50.6029 13.0399C53.5386 10.4202 56.7364 11.4149 57.6638 11.79C56.2191 6.55657 53.1714 4.11004 50.8493 2.97732C48.9142 2.03355 47.1515 1.8212 46.3947 1.77389Z" fill="#3D3D3D"/>
<path d="M44.9975 1.82931C44.9663 1.82931 44.9359 1.8188 44.9119 1.79882C44.8834 1.77569 44.8658 1.74179 44.8631 1.70552C44.861 1.67425 44.8594 1.65112 44.8594 1.62773C44.8594 1.00592 45.3727 0.5 46.0036 0.5C46.6345 0.5 47.1479 1.00592 47.1479 1.62773C47.1479 1.65112 47.1463 1.67399 47.1447 1.69711C47.1423 1.73338 47.1241 1.77149 47.0956 1.79488C47.0671 1.81801 47.0295 1.83351 46.9929 1.82852C46.3855 1.75414 46.01 1.76045 46.0066 1.76098C46.0047 1.76098 46.0026 1.76098 46.0007 1.76098C45.9975 1.76071 45.622 1.75414 45.0143 1.82852C45.0084 1.82878 45.0028 1.82931 44.9975 1.82931ZM46.0034 0.765967C45.5487 0.765967 45.174 1.10946 45.1327 1.54705C45.6511 1.49081 45.9674 1.49422 46.0034 1.49501C46.0399 1.49422 46.3561 1.49081 46.874 1.54705C46.8327 1.10946 46.458 0.765967 46.0034 0.765967Z" fill="#3D3D3D"/>
<path d="M49.0008 11.2627C48.9779 11.2627 48.9544 11.2569 48.9328 11.2446C48.932 11.2441 48.8323 11.187 48.6448 11.109C48.5763 11.0803 48.5443 11.0025 48.5731 10.935C48.6021 10.8675 48.6805 10.8357 48.7499 10.8643C48.9555 10.95 49.0648 11.0128 49.0693 11.0154C49.1333 11.0525 49.1549 11.1339 49.1173 11.197C49.0923 11.2393 49.0472 11.2627 49.0008 11.2627Z" fill="white"/>
<path d="M48.1229 10.9179C48.1104 10.9179 48.0976 10.9161 48.0848 10.9124C47.8971 10.858 47.7006 10.8104 47.5008 10.7718C47.4278 10.7576 47.3803 10.6877 47.3947 10.6157C47.4094 10.5436 47.4803 10.4966 47.5531 10.5111C47.7611 10.5515 47.9656 10.6007 48.1611 10.6577C48.2325 10.6785 48.2733 10.7523 48.2523 10.8228C48.2349 10.8803 48.1813 10.9179 48.1229 10.9179ZM43.8769 10.8932C43.8182 10.8932 43.7644 10.8553 43.7476 10.7973C43.7268 10.7268 43.7681 10.653 43.8396 10.6325C44.031 10.5778 44.2366 10.5308 44.4508 10.4927C44.5252 10.479 44.5942 10.5276 44.6076 10.5999C44.6206 10.6722 44.5721 10.7413 44.4988 10.7542C44.2937 10.7907 44.0974 10.8356 43.9148 10.8879C43.902 10.8913 43.8894 10.8932 43.8769 10.8932ZM46.9208 10.6816C46.9158 10.6816 46.9107 10.6814 46.9056 10.6808C46.7091 10.659 46.5067 10.644 46.3038 10.6369C46.2294 10.6343 46.1713 10.5726 46.1739 10.4992C46.1766 10.4259 46.24 10.3676 46.3134 10.3712C46.5232 10.3789 46.7326 10.3941 46.9358 10.4167C47.0096 10.4249 47.063 10.4908 47.0547 10.5636C47.0467 10.6317 46.9883 10.6816 46.9208 10.6816ZM45.0825 10.674C45.0139 10.674 44.9553 10.6228 44.9483 10.5539C44.9411 10.4808 44.9953 10.4159 45.0694 10.4088C45.2697 10.3896 45.4787 10.3768 45.6907 10.3705C45.7667 10.3689 45.8275 10.4259 45.8297 10.4992C45.8318 10.5726 45.7734 10.6338 45.699 10.6362C45.4929 10.6422 45.2899 10.6548 45.0955 10.6735C45.0913 10.6737 45.0867 10.674 45.0825 10.674Z" fill="white"/>
<path d="M43.0022 11.2625C42.9611 11.2625 42.9203 11.2441 42.8939 11.2091C42.8496 11.1505 42.8616 11.0677 42.9208 11.0236C42.9251 11.0204 43.0275 10.9455 43.2392 10.8485C43.3075 10.8175 43.3872 10.8467 43.4184 10.9132C43.4499 10.9797 43.4203 11.0588 43.3528 11.0895C43.1699 11.1731 43.0832 11.2357 43.0821 11.2362C43.0581 11.254 43.0301 11.2625 43.0022 11.2625Z" fill="white"/>
<path d="M40.6878 11.4454C40.6552 11.4454 40.6227 11.4338 40.5968 11.4107C40.596 11.4099 40.507 11.3303 40.3448 11.2144C40.2846 11.1713 40.271 11.0882 40.3147 11.0288C40.3582 10.9695 40.4424 10.9561 40.503 10.9992C40.679 11.1248 40.775 11.211 40.7787 11.2147C40.8336 11.2643 40.8374 11.3482 40.787 11.4023C40.7606 11.431 40.7243 11.4454 40.6878 11.4454Z" fill="white"/>
<path d="M39.8335 10.873C39.8119 10.873 39.79 10.868 39.7698 10.8572C39.5682 10.7502 39.3583 10.6554 39.1468 10.5752C39.0772 10.5489 39.0426 10.4719 39.0692 10.4036C39.0959 10.335 39.1738 10.3008 39.2434 10.3271C39.4655 10.4112 39.6858 10.5108 39.8975 10.6233C39.9631 10.658 39.9876 10.7387 39.9524 10.8033C39.9279 10.8477 39.8815 10.873 39.8335 10.873ZM38.5242 10.3786C38.5138 10.3786 38.5034 10.3776 38.4927 10.3749C38.2698 10.3226 38.0429 10.2858 37.8183 10.2651C37.7442 10.2583 37.6898 10.1936 37.6965 10.1205C37.7034 10.0475 37.7701 9.99334 37.8434 10.0007C38.0805 10.0225 38.3199 10.0614 38.5551 10.1166C38.6277 10.1334 38.6722 10.2052 38.6551 10.2766C38.6405 10.3376 38.585 10.3786 38.5242 10.3786ZM36.4317 10.336C36.3685 10.336 36.3122 10.2922 36.2994 10.2286C36.285 10.1565 36.3328 10.0866 36.4058 10.0727C36.6429 10.027 36.884 9.9978 37.1221 9.98571C37.1914 9.9802 37.2597 10.0383 37.2637 10.1116C37.2674 10.1849 37.2104 10.2472 37.136 10.2512C36.9106 10.2625 36.6826 10.2903 36.4581 10.3337C36.4488 10.3353 36.4402 10.336 36.4317 10.336Z" fill="white"/>
<path d="M35.4317 10.6317C35.3787 10.6317 35.3283 10.6004 35.3069 10.5489C35.2787 10.4811 35.312 10.4035 35.3808 10.3757C35.4883 10.3326 35.5971 10.2924 35.7043 10.2566C35.7752 10.233 35.8515 10.2703 35.8752 10.3397C35.8989 10.4091 35.8613 10.4845 35.7907 10.5081C35.6885 10.5423 35.5848 10.5807 35.4824 10.6217C35.4661 10.6285 35.4488 10.6317 35.4317 10.6317Z" fill="white"/>
<path d="M51.3068 11.4454C51.2703 11.4454 51.234 11.431 51.2074 11.4023C51.157 11.3482 51.1607 11.2643 51.2156 11.2147C51.2196 11.211 51.3154 11.1248 51.4914 10.9992C51.5519 10.9561 51.6362 10.9695 51.6796 11.0288C51.7234 11.0882 51.71 11.1713 51.6495 11.2144C51.4874 11.33 51.3983 11.4097 51.3975 11.4107C51.3719 11.4341 51.3394 11.4454 51.3068 11.4454Z" fill="white"/>
<path d="M52.1663 10.873C52.1183 10.873 52.0716 10.8477 52.0473 10.8031C52.0121 10.7384 52.0367 10.658 52.1023 10.623C52.314 10.5106 52.534 10.4109 52.7564 10.3268C52.826 10.3006 52.9038 10.3347 52.9305 10.4033C52.9572 10.4717 52.9225 10.5487 52.8529 10.5749C52.6414 10.6551 52.4316 10.75 52.23 10.8569C52.2097 10.8677 52.1879 10.873 52.1663 10.873ZM53.4756 10.3786C53.4145 10.3786 53.3593 10.3376 53.3446 10.2764C53.3273 10.2049 53.3721 10.1334 53.4446 10.1163C53.6798 10.0611 53.9193 10.0222 54.1563 10.0004C54.2299 9.99334 54.2961 10.0472 54.3033 10.1203C54.3102 10.1933 54.2555 10.258 54.1814 10.2648C53.9569 10.2856 53.73 10.3224 53.507 10.3747C53.4964 10.3776 53.486 10.3786 53.4756 10.3786ZM55.568 10.336C55.5595 10.336 55.5507 10.3353 55.5419 10.3337C55.3174 10.2903 55.0891 10.2627 54.8641 10.2512C54.7897 10.2475 54.7323 10.1849 54.7363 10.1116C54.7401 10.0383 54.8073 9.9802 54.8779 9.98571C55.1161 9.9978 55.3568 10.027 55.5942 10.0727C55.6672 10.0869 55.715 10.1565 55.7006 10.2286C55.6878 10.2919 55.6312 10.336 55.568 10.336Z" fill="white"/>
<path d="M56.568 10.6317C56.551 10.6317 56.5339 10.6285 56.5171 10.6217C56.4147 10.5804 56.311 10.5423 56.2088 10.5081C56.1382 10.4845 56.1006 10.4091 56.1243 10.3397C56.1483 10.2703 56.2248 10.233 56.2952 10.2566C56.4024 10.2926 56.5112 10.3326 56.6187 10.3757C56.6875 10.4033 56.7208 10.4808 56.6926 10.5489C56.6715 10.6004 56.6211 10.6317 56.568 10.6317Z" fill="white"/>
<path d="M46.0021 20.9458C45.9277 20.9458 45.8672 20.8864 45.8672 20.8128V11.8495C45.8672 11.7762 45.9275 11.7166 46.0021 11.7166C46.0768 11.7166 46.137 11.7759 46.137 11.8495V20.8128C46.137 20.8861 46.0765 20.9458 46.0021 20.9458Z" fill="#3D3D3D"/>
<path d="M12.9549 19.3203C13.4184 19.3203 13.8325 19.4245 14.1971 19.6328C14.5669 19.8411 14.8846 20.138 15.1502 20.5234C15.421 20.9036 15.632 21.3516 15.783 21.8672C15.9393 22.3828 16.033 22.9453 16.0643 23.5547H16.783V25.5H15.9236C15.757 26.2188 15.4679 26.8594 15.0564 27.4219C14.645 27.9844 14.0877 28.4583 13.3846 28.8438C12.6866 29.2344 11.8169 29.5312 10.7752 29.7344L10.1189 27.9609C10.8221 27.8255 11.4549 27.6432 12.0174 27.4141C12.5799 27.1849 13.046 26.9089 13.4158 26.5859C13.7908 26.2682 14.0408 25.9062 14.1658 25.5H13.2439C12.2179 25.5 11.4393 25.2891 10.908 24.8672C10.382 24.4401 10.1189 23.7682 10.1189 22.8516C10.1189 22.4661 10.1762 22.0677 10.2908 21.6562C10.4106 21.2448 10.5877 20.862 10.8221 20.5078C11.0616 20.1536 11.3585 19.8672 11.7127 19.6484C12.0721 19.4297 12.4861 19.3203 12.9549 19.3203ZM13.2127 23.5547H14.3533C14.3273 23.2318 14.2804 22.9297 14.2127 22.6484C14.1502 22.3672 14.0616 22.1198 13.9471 21.9062C13.8377 21.6927 13.6997 21.5286 13.533 21.4141C13.3663 21.2943 13.1684 21.2344 12.9393 21.2344C12.6632 21.2344 12.4445 21.3229 12.283 21.5C12.1215 21.6771 12.007 21.8854 11.9393 22.125C11.8715 22.3646 11.8377 22.5833 11.8377 22.7812C11.8377 23.0938 11.9575 23.3021 12.1971 23.4062C12.4366 23.5052 12.7752 23.5547 13.2127 23.5547ZM18.5872 18.1484C18.9883 18.3984 19.3737 18.651 19.7435 18.9062C20.1185 19.1562 20.4675 19.4167 20.7904 19.6875C21.1133 19.9531 21.3945 20.2344 21.6341 20.5312C21.8789 20.8229 22.069 21.1328 22.2044 21.4609C22.3399 21.7891 22.4076 22.1432 22.4076 22.5234C22.4076 23.2786 22.2357 23.8724 21.8919 24.3047C21.5482 24.737 21.0482 25.0443 20.3919 25.2266C19.7409 25.4089 18.9518 25.5 18.0247 25.5H16.1185V23.5547H18.0169C18.6159 23.5547 19.1081 23.526 19.4935 23.4688C19.8841 23.4062 20.1732 23.2995 20.3607 23.1484C20.5482 22.9922 20.6419 22.7734 20.6419 22.4922C20.6419 22.2995 20.5586 22.099 20.3919 21.8906C20.2305 21.6823 20.0143 21.4688 19.7435 21.25C19.4727 21.0312 19.1758 20.8125 18.8529 20.5938C18.53 20.375 18.207 20.1589 17.8841 19.9453C17.5612 19.7318 17.2695 19.526 17.0091 19.3281C16.8112 19.1771 16.6602 18.987 16.556 18.7578C16.4518 18.5286 16.3997 18.2969 16.3997 18.0625C16.3997 17.7969 16.4649 17.5495 16.5951 17.3203C16.7253 17.0859 16.9258 16.9141 17.1966 16.8047L23.0716 14.4141V16.3281L18.5872 18.1484ZM27.9228 25.5C27.6415 25.5 27.3915 25.4661 27.1728 25.3984C26.954 25.3307 26.7743 25.2526 26.6337 25.1641C26.5191 25.9141 26.2769 26.6016 25.9071 27.2266C25.5425 27.8568 25.0399 28.3854 24.3993 28.8125C23.7587 29.2448 22.9696 29.5521 22.0321 29.7344L21.3759 27.9688C22.1623 27.7969 22.8212 27.5573 23.3524 27.25C23.8837 26.9479 24.2847 26.5573 24.5556 26.0781C24.8264 25.6042 24.9618 25.0286 24.9618 24.3516C24.9618 23.888 24.8967 23.3802 24.7665 22.8281C24.6363 22.276 24.4853 21.7474 24.3134 21.2422L26.1103 20.6484L26.5478 22.3672C26.6467 22.7422 26.7951 23.0339 26.9931 23.2422C27.1962 23.4505 27.4774 23.5547 27.8368 23.5547H28.1337V25.5H27.9228ZM31.7895 14.875L33.0942 16.1797L31.7895 17.4766L30.4926 16.1797L31.7895 14.875ZM31.852 20.3672C31.6853 20.3672 31.5083 20.4323 31.3208 20.5625C31.1385 20.6875 30.9822 20.8438 30.852 21.0312C30.727 21.2188 30.6645 21.4036 30.6645 21.5859C30.6645 21.7995 30.727 22.013 30.852 22.2266C30.9822 22.4349 31.1385 22.625 31.3208 22.7969C31.5083 22.9688 31.6905 23.1016 31.8676 23.1953C32.0708 23.0964 32.2635 22.9635 32.4458 22.7969C32.6333 22.625 32.7869 22.4323 32.9067 22.2188C33.0265 22.0052 33.0864 21.7891 33.0864 21.5703C33.0864 21.388 33.0187 21.2057 32.8833 21.0234C32.753 20.8411 32.5916 20.6875 32.3989 20.5625C32.2062 20.4323 32.0239 20.3672 31.852 20.3672ZM34.8286 21.5703C34.8286 21.8151 34.7999 22.0469 34.7426 22.2656C34.6905 22.4844 34.6098 22.6979 34.5004 22.9062C34.3963 23.1146 34.2609 23.3255 34.0942 23.5391C34.2192 23.5443 34.3338 23.5495 34.4379 23.5547C34.5473 23.5547 34.6463 23.5547 34.7348 23.5547C34.8286 23.5547 34.9171 23.5547 35.0004 23.5547H35.7504V25.5H34.8129C34.5577 25.5 34.2635 25.4766 33.9301 25.4297C33.5968 25.3776 33.2504 25.3073 32.8911 25.2188C32.5317 25.1302 32.1827 25.026 31.8442 24.9062C31.4952 25.0312 31.1359 25.138 30.7661 25.2266C30.3963 25.3099 30.0395 25.3776 29.6958 25.4297C29.352 25.4766 29.0447 25.5 28.7739 25.5H27.477V23.5547H28.6176C28.7218 23.5547 28.8234 23.5547 28.9223 23.5547C29.0213 23.5547 29.128 23.5521 29.2426 23.5469C29.3624 23.5417 29.4926 23.5365 29.6333 23.5312C29.477 23.3177 29.3442 23.1068 29.2348 22.8984C29.1306 22.6849 29.0499 22.4688 28.9926 22.25C28.9405 22.026 28.9145 21.7943 28.9145 21.5547C28.9145 21.1797 28.9952 20.8125 29.1567 20.4531C29.3234 20.0885 29.5447 19.7578 29.8208 19.4609C30.0968 19.1641 30.4093 18.9297 30.7583 18.7578C31.1072 18.5807 31.4692 18.4922 31.8442 18.4922C32.2296 18.4922 32.5994 18.5807 32.9536 18.7578C33.3129 18.9297 33.6333 19.1641 33.9145 19.4609C34.1958 19.7526 34.4171 20.0807 34.5786 20.4453C34.7452 20.8099 34.8286 21.1849 34.8286 21.5703ZM40.5391 25.5C39.9818 25.5 39.5312 25.4062 39.1875 25.2188C38.8438 25.026 38.5651 24.7656 38.3516 24.4375C38.0807 24.7708 37.75 25.0312 37.3594 25.2188C36.974 25.4062 36.4583 25.5 35.8125 25.5H35.0938V23.5547H35.8281C36.2344 23.5547 36.5625 23.5182 36.8125 23.4453C37.0625 23.3724 37.2448 23.2344 37.3594 23.0312C37.4792 22.8281 37.5391 22.5312 37.5391 22.1406C37.5391 22.0573 37.5339 21.9349 37.5234 21.7734C37.5182 21.612 37.5078 21.4297 37.4922 21.2266C37.4818 21.0234 37.4661 20.8203 37.4453 20.6172L39.1641 20.4062L39.3125 22.3359C39.3385 22.7161 39.4531 23.0156 39.6562 23.2344C39.8594 23.4479 40.1589 23.5547 40.5547 23.5547C41.0339 23.5547 41.3542 23.4427 41.5156 23.2188C41.6823 22.9948 41.7656 22.6354 41.7656 22.1406C41.7656 22.0573 41.7604 21.9349 41.75 21.7734C41.7448 21.612 41.7344 21.4297 41.7188 21.2266C41.7083 21.0234 41.6927 20.8203 41.6719 20.6172L43.3906 20.4062L43.5391 22.3359C43.5599 22.6953 43.651 22.9896 43.8125 23.2188C43.974 23.4427 44.2422 23.5547 44.6172 23.5547C44.8568 23.5547 45.0443 23.4922 45.1797 23.3672C45.3151 23.237 45.4115 23.0677 45.4688 22.8594C45.526 22.6458 45.5547 22.4141 45.5547 22.1641C45.5547 21.8828 45.5312 21.5938 45.4844 21.2969C45.4375 21 45.3854 20.7266 45.3281 20.4766C45.2708 20.2214 45.224 20.0286 45.1875 19.8984L46.9453 19.4219C47.0443 19.8073 47.125 20.2188 47.1875 20.6562C47.2552 21.0938 47.2891 21.5286 47.2891 21.9609C47.2891 22.5755 47.2057 23.1536 47.0391 23.6953C46.8724 24.2318 46.5964 24.6667 46.2109 25C45.8255 25.3333 45.2969 25.5 44.625 25.5C44.1458 25.5 43.7474 25.401 43.4297 25.2031C43.1172 25.0052 42.8568 24.7474 42.6484 24.4297C42.3724 24.763 42.0625 25.026 41.7188 25.2188C41.375 25.4062 40.9818 25.5 40.5391 25.5Z" fill="#007DF0"/>
<path d="M34.5516 16.5106C34.5516 16.8084 34.5231 17.0978 34.4683 17.3786H25.5833C25.5285 17.0978 25.5 16.8063 25.5 16.5106C25.5 15.9957 25.5877 15.4999 25.7455 15.0382C26.3572 13.2702 28.043 12 30.0247 12C32.0065 12 33.6923 13.2702 34.3039 15.0382C34.4661 15.4999 34.5516 15.9957 34.5516 16.5106Z" fill="#FF8F00"/>
</svg>
