<svg width="36" height="36" viewBox="0 0 36 36" fill="none" xmlns="http://www.w3.org/2000/svg">
<g clip-path="url(#clip0_5007_34247)">
<path fill-rule="evenodd" clip-rule="evenodd" d="M18 34.5C27.1127 34.5 34.5 27.1127 34.5 18C34.5 8.8873 27.1127 1.5 18 1.5C8.8873 1.5 1.5 8.8873 1.5 18C1.5 27.1127 8.8873 34.5 18 34.5ZM18 36C27.9411 36 36 27.9411 36 18C36 8.05887 27.9411 0 18 0C8.05887 0 0 8.05887 0 18C0 27.9411 8.05887 36 18 36Z" fill="white"/>
<path d="M15.5432 20.4366C15.5432 19.0661 15.5432 17.7936 15.5432 16.4231C15.6411 14.6611 16.62 13.7801 18.1862 14.4653C18.9693 14.759 19.4588 14.8569 20.0461 14.5632C21.5144 13.7801 22.787 14.3674 24.1574 14.8569C25.0384 15.1506 25.5279 15.8358 25.8215 16.7168C26.6047 19.2619 26.6047 21.807 26.5068 24.3521C26.5068 25.0374 26.2131 25.5268 25.43 25.6247C25.2342 25.6247 25.1363 25.6247 24.9405 25.7226C22.1997 26.212 21.906 26.0162 22.1996 23.2753C22.2975 22.1007 22.4933 20.926 22.1996 19.7513C22.0039 19.164 21.8081 18.4788 21.025 18.3809C20.3398 18.283 19.8503 18.7725 19.4588 19.2619C19.0672 19.7513 18.9693 20.3387 18.9693 21.0239C18.9693 22.0028 18.9693 22.8838 18.9693 23.8627C18.9693 25.8205 18.8714 25.9184 17.1094 25.8205C15.4453 25.8205 15.4453 25.8205 15.4453 24.1563C15.5432 22.9817 15.5432 21.7091 15.5432 20.4366Z" fill="white"/>
<path d="M10.1604 20.2406C10.1604 18.8701 10.1604 17.5976 10.1604 16.2271C10.1604 15.0525 10.8456 14.8567 11.8245 14.7588C12.9013 14.7588 13.0971 15.3461 13.0971 16.2271C13.2928 18.7722 13.2928 21.3174 13.195 23.8625C13.195 24.7435 13.195 25.8203 11.8245 25.8203C10.6499 25.9181 10.0625 25.4287 10.0625 24.254C10.0625 22.8836 10.0625 21.4152 10.0625 20.0448C10.0625 20.2406 10.1604 20.2406 10.1604 20.2406Z" fill="white"/>
<path d="M11.0391 9.375C12.5074 9.375 13.2906 9.96233 13.2906 10.8433C13.2906 11.9201 12.018 13.1927 11.0391 13.1927C10.0602 13.1927 9.375 12.4096 9.375 11.3328C9.47289 10.0602 10.0602 9.375 11.0391 9.375Z" fill="white"/>
</g>
<defs>
<clipPath id="clip0_5007_34247">
<rect width="36" height="36" fill="white"/>
</clipPath>
</defs>
</svg>
