<svg width="26" height="26" viewBox="0 0 26 26" fill="none" xmlns="http://www.w3.org/2000/svg">
<path d="M6.42315 16.7808L15.6965 21.4175C21.9256 24.5375 24.4823 21.9808 21.3623 15.7516L20.4198 13.8666C20.149 13.3141 20.149 12.675 20.4198 12.1225L21.3623 10.2483C24.4823 4.01914 21.9365 1.46248 15.6965 4.58248L6.42315 9.21914C2.26315 11.2991 2.26315 14.7008 6.42315 16.7808ZM9.92232 12.1875L15.7723 12.1875C16.2165 12.1875 16.5848 12.5558 16.5848 13C16.5848 13.4441 16.2165 13.8125 15.7723 13.8125L9.92232 13.8125C9.47815 13.8125 9.10982 13.4441 9.10982 13C9.10982 12.5558 9.47815 12.1875 9.92232 12.1875Z" fill="#E6E6E6"/>
</svg>
