<svg width="36" height="36" viewBox="0 0 36 36" fill="none" xmlns="http://www.w3.org/2000/svg">
<g clip-path="url(#clip0_5007_34254)">
<path d="M7.125 19.1148C9.20039 17.7941 10.7098 16.8507 12.3135 15.9074C16.0869 13.832 19.766 11.7566 23.4451 9.49252C24.8602 8.6435 25.2375 8.83214 25.2375 10.5302C25.1432 11.7566 24.9545 12.8886 24.7658 14.115C24.1998 17.6054 23.5395 21.0959 22.9735 24.5863C22.7848 25.624 22.4074 25.907 21.4641 25.341C20.9924 25.058 20.5207 24.9636 20.049 24.7749C17.5963 23.7372 17.3133 23.7372 15.5209 25.7183C15.1436 26.0956 15.0492 26.6617 14.2945 26.756C14.0115 24.9636 13.6342 23.3599 14.9549 21.7562C16.2756 20.0582 17.502 18.4544 18.917 16.7564C19.2944 16.2847 19.5774 15.813 19.766 15.247C17.5963 16.662 15.4266 18.1714 13.6342 20.0581C12.9738 20.8128 12.4078 20.9072 11.4645 20.5298C10.2381 20.0581 8.91738 19.6808 7.125 19.1148Z" fill="white"/>
<path fill-rule="evenodd" clip-rule="evenodd" d="M18 34.5C27.1127 34.5 34.5 27.1127 34.5 18C34.5 8.8873 27.1127 1.5 18 1.5C8.8873 1.5 1.5 8.8873 1.5 18C1.5 27.1127 8.8873 34.5 18 34.5ZM18 36C27.9411 36 36 27.9411 36 18C36 8.05887 27.9411 0 18 0C8.05887 0 0 8.05887 0 18C0 27.9411 8.05887 36 18 36Z" fill="white"/>
</g>
<defs>
<clipPath id="clip0_5007_34254">
<rect width="36" height="36" fill="white"/>
</clipPath>
</defs>
</svg>
