<svg width="21" height="20" viewBox="0 0 21 20" fill="none" xmlns="http://www.w3.org/2000/svg">
<path d="M10.5013 18.9584C5.55964 18.9584 1.54297 14.9417 1.54297 10C1.54297 5.05835 5.55964 1.04169 10.5013 1.04169C15.443 1.04169 19.4596 5.05835 19.4596 10C19.4596 14.9417 15.443 18.9584 10.5013 18.9584ZM10.5013 2.29169C6.2513 2.29169 2.79297 5.75002 2.79297 10C2.79297 14.25 6.2513 17.7084 10.5013 17.7084C14.7513 17.7084 18.2096 14.25 18.2096 10C18.2096 5.75002 14.7513 2.29169 10.5013 2.29169Z" fill="#fff"/>
<path d="M13.8346 10.625H7.16797C6.8263 10.625 6.54297 10.3417 6.54297 10C6.54297 9.65833 6.8263 9.375 7.16797 9.375H13.8346C14.1763 9.375 14.4596 9.65833 14.4596 10C14.4596 10.3417 14.1763 10.625 13.8346 10.625Z" fill="#fff"/>
<path d="M10.5 13.9584C10.1583 13.9584 9.875 13.675 9.875 13.3334V6.66669C9.875 6.32502 10.1583 6.04169 10.5 6.04169C10.8417 6.04169 11.125 6.32502 11.125 6.66669V13.3334C11.125 13.675 10.8417 13.9584 10.5 13.9584Z" fill="#fff"/>
</svg>
