<svg width="18" height="18" viewBox="0 0 18 18" fill="none" xmlns="http://www.w3.org/2000/svg">
<path d="M9 17.0625C4.5525 17.0625 0.9375 13.4475 0.9375 9C0.9375 4.5525 4.5525 0.9375 9 0.9375C13.4475 0.9375 17.0625 4.5525 17.0625 9C17.0625 13.4475 13.4475 17.0625 9 17.0625ZM9 2.0625C5.175 2.0625 2.0625 5.175 2.0625 9C2.0625 12.825 5.175 15.9375 9 15.9375C12.825 15.9375 15.9375 12.825 15.9375 9C15.9375 5.175 12.825 2.0625 9 2.0625Z" fill="#fff"/>
<path d="M11.7791 11.9476C11.6816 11.9476 11.5841 11.9251 11.4941 11.8651L9.16906 10.4776C8.59156 10.1326 8.16406 9.37507 8.16406 8.70757V5.63257C8.16406 5.32507 8.41906 5.07007 8.72656 5.07007C9.03406 5.07007 9.28906 5.32507 9.28906 5.63257V8.70757C9.28906 8.97757 9.51406 9.37507 9.74656 9.51007L12.0716 10.8976C12.3416 11.0551 12.4241 11.4001 12.2666 11.6701C12.1541 11.8501 11.9666 11.9476 11.7791 11.9476Z" fill="#fff"/>
</svg>
