<svg width="21" height="20" viewBox="0 0 21 20" fill="none" xmlns="http://www.w3.org/2000/svg">
<path d="M18.2096 7.62494C16.2846 4.59994 13.468 2.85828 10.5013 2.85828C9.01797 2.85828 7.5763 3.29161 6.25964 4.09994C4.94297 4.91661 3.75964 6.10828 2.79297 7.62494C1.95964 8.93328 1.95964 11.0583 2.79297 12.3666C4.71797 15.3999 7.53464 17.1333 10.5013 17.1333C11.9846 17.1333 13.4263 16.6999 14.743 15.8916C16.0596 15.0749 17.243 13.8833 18.2096 12.3666C19.043 11.0666 19.043 8.93328 18.2096 7.62494ZM10.5013 13.3666C8.63464 13.3666 7.13464 11.8583 7.13464 9.99994C7.13464 8.14161 8.63464 6.63328 10.5013 6.63328C12.368 6.63328 13.868 8.14161 13.868 9.99994C13.868 11.8583 12.368 13.3666 10.5013 13.3666Z" fill="white"/>
<path d="M10.5 7.6167C9.19167 7.6167 8.125 8.68337 8.125 10C8.125 11.3084 9.19167 12.375 10.5 12.375C11.8083 12.375 12.8833 11.3084 12.8833 10C12.8833 8.6917 11.8083 7.6167 10.5 7.6167Z" fill="white"/>
</svg>
