<svg width="35" height="34" viewBox="0 0 35 34" fill="none" xmlns="http://www.w3.org/2000/svg">
<path d="M17.4987 0.333313C8.2987 0.333313 0.832031 7.79998 0.832031 17C0.832031 26.2 8.2987 33.6666 17.4987 33.6666C26.6987 33.6666 34.1654 26.2 34.1654 17C34.1654 7.79998 26.6987 0.333313 17.4987 0.333313ZM23.332 18.25H14.682L17.5487 21.1166C18.032 21.6 18.032 22.4 17.5487 22.8833C17.2987 23.1333 16.982 23.25 16.6654 23.25C16.3487 23.25 16.032 23.1333 15.782 22.8833L10.782 17.8833C10.2987 17.4 10.2987 16.6 10.782 16.1166L15.782 11.1166C16.2654 10.6333 17.0654 10.6333 17.5487 11.1166C18.032 11.6 18.032 12.4 17.5487 12.8833L14.682 15.75H23.332C24.0154 15.75 24.582 16.3166 24.582 17C24.582 17.6833 24.0154 18.25 23.332 18.25Z" fill="#0698FF"/>
</svg>
