<svg width="335" height="230" viewBox="0 0 335 230" fill="none" xmlns="http://www.w3.org/2000/svg">
<g clip-path="url(#clip0_335_27148)">
<path d="M331.739 141.333C331.739 141.333 329.9 83.1969 274.036 80.3346C210.816 77.0907 214.747 142.987 214.747 142.987C214.747 142.987 232.248 134.209 269.407 135.29C311.955 136.372 331.739 141.333 331.739 141.333Z" fill="white"/>
<path d="M319.82 27.0962C316.967 14.9474 302.573 26.5874 277.653 19.5271C256.918 13.6117 250.133 -1.97181 243.158 3.43471C236.183 8.84123 245.884 26.5874 275.687 36.7007C297.88 44.2699 323.118 41.2804 319.82 27.0962Z" fill="#231F20"/>
<path d="M16.4024 31.1034C18.1779 18.7638 33.5865 29.1316 57.7457 19.8451C77.9101 12.1488 83.3 -3.94359 90.7189 0.826872C98.1379 5.66094 89.958 24.1703 61.1699 36.828C39.7373 46.3053 14.3098 45.4784 16.4024 31.1034Z" fill="#231F20"/>
<path d="M3.27734 139.17C3.27734 139.17 5.94057 81.0343 61.7414 78.9353C124.961 76.5182 120.205 142.351 120.205 142.351C120.205 142.351 102.831 133.382 65.6728 133.891C23.1247 134.463 3.27734 139.17 3.27734 139.17Z" fill="white"/>
<path d="M277.398 79.8257C309.103 91.4021 310.816 127.976 310.689 137.453C324.068 139.934 330.473 143.241 330.473 143.241C330.473 143.241 334.975 81.2251 277.398 79.8257Z" fill="#EFEFEF"/>
<path d="M67.0664 78.8716C98.7714 90.448 100.483 127.022 100.357 136.499C113.736 138.98 120.141 142.287 120.141 142.287C120.141 142.287 124.706 80.271 67.0664 78.8716Z" fill="#EFEFEF"/>
<path d="M92.3674 128.294C92.3674 111.311 78.6708 97.5718 61.7403 97.5718C44.8098 97.5718 31.1133 111.311 31.1133 128.294C31.1133 130.774 31.4303 133.255 32.001 135.545C41.0052 134.845 52.1654 134.209 65.6717 134.018C75.7539 133.891 84.3143 134.463 91.543 135.29C92.1137 133.128 92.3674 130.774 92.3674 128.294Z" fill="#231F20"/>
<path d="M54.7631 126.513C60.2262 126.513 64.655 122.07 64.655 116.59C64.655 111.11 60.2262 106.668 54.7631 106.668C49.2999 106.668 44.8711 111.11 44.8711 116.59C44.8711 122.07 49.2999 126.513 54.7631 126.513Z" fill="white"/>
<path d="M242.777 129.311C243.031 112.328 256.918 98.7803 273.785 99.0347C290.715 99.2891 304.222 113.219 303.968 130.138C303.905 132.619 303.588 135.099 303.017 137.389C294.013 136.562 282.852 135.799 269.41 135.417C259.327 135.163 250.767 135.608 243.538 136.372C243.031 134.082 242.777 131.728 242.777 129.311Z" fill="#231F20"/>
<path d="M290.425 118.208C290.498 112.728 286.128 108.227 280.666 108.154C275.203 108.081 270.716 112.464 270.643 117.944C270.571 123.423 274.94 127.924 280.403 127.997C285.865 128.07 290.353 123.687 290.425 118.208Z" fill="white"/>
<path d="M268.014 218.424C266.999 218.424 265.984 217.915 265.414 217.024C265.35 216.961 259.136 207.929 245.503 199.087C233.011 190.946 211.452 181.278 180 181.278C179.874 181.278 179.747 181.278 179.62 181.278C131.492 181.405 95.6651 216.261 95.2846 216.643C94.0164 217.851 92.0507 217.851 90.7825 216.643C89.5777 215.37 89.5777 213.399 90.7825 212.127C91.163 211.745 100.357 202.713 115.893 193.554C130.287 185.094 152.988 174.981 179.557 174.917C179.683 174.917 179.81 174.917 180 174.917C213.227 174.917 235.992 185.285 249.244 193.935C263.829 203.476 270.36 213.081 270.677 213.462C271.628 214.925 271.311 216.897 269.852 217.851C269.218 218.233 268.584 218.424 268.014 218.424Z" fill="#231F20"/>
<path d="M82.0312 201.568C77.0218 209.646 76.134 220.077 79.7484 228.855C80.0654 229.618 80.8264 230.191 81.7141 229.936C82.475 229.746 83.1725 228.791 82.7921 227.965C79.4948 219.887 80.1923 210.536 84.7578 203.158C85.8358 201.441 83.1091 199.787 82.0312 201.568Z" fill="#231F20"/>
<path d="M271.628 204.049C277.652 209.901 279.934 219.123 277.461 227.138C276.827 229.11 279.934 229.936 280.505 227.965C283.359 218.869 280.695 208.438 273.847 201.759C272.389 200.36 270.106 202.649 271.628 204.049Z" fill="#231F20"/>
<path d="M109.298 125.304C108.473 124.541 107.649 123.841 106.635 123.46C105.049 122.887 103.337 123.269 101.689 123.014C98.0108 122.315 95.8549 118.498 92.621 116.526C87.9287 113.664 81.5243 115.382 77.6562 119.325C75.3101 121.742 73.1541 125.177 69.7934 125.241C68.2082 125.304 66.6863 124.541 65.1011 124.286C61.0428 123.587 57.2382 126.131 53.2434 127.085C49.4388 128.039 45.2537 127.53 41.7662 125.749C37.5177 123.523 33.4595 119.389 28.894 120.724C24.5187 122.06 22.87 127.785 18.5581 129.311C15.5145 130.456 11.8367 129.057 8.91981 130.456C5.93954 131.919 4.86157 135.545 4.16406 138.852L61.8037 134.018L117.985 140.188C118.048 134.209 113.61 129.311 109.298 125.304Z" fill="#7ECDEC"/>
<path d="M120.204 144.64C119.824 144.64 119.443 144.577 119.126 144.386C118.936 144.322 101.688 135.672 65.7349 136.181C24.0111 136.753 4.03697 141.333 3.78333 141.397C3.08582 141.587 2.3249 141.397 1.75421 140.888C1.18352 140.442 0.866466 139.679 0.929876 138.98C0.929876 138.343 1.6908 123.778 9.49023 108.703C16.719 94.646 31.6837 77.6631 61.6767 76.5182C80.5729 75.8185 95.5376 80.9706 106 91.9109C124.579 111.184 122.614 141.206 122.55 142.478C122.487 143.241 122.043 143.941 121.345 144.386C121.028 144.577 120.585 144.64 120.204 144.64ZM68.842 131.474C95.4742 131.474 111.454 136.308 117.921 138.789C117.858 130.647 116.273 109.339 102.576 95.1548C93.0012 85.2323 79.3047 80.589 61.8035 81.2251C39.5466 82.0519 23.3136 92.0381 13.6119 110.866C8.34885 121.106 6.50996 131.283 5.87586 136.181C13.0412 134.845 32.3812 131.919 65.6081 131.474C66.7495 131.474 67.8274 131.474 68.842 131.474Z" fill="#231F20"/>
<path d="M227.684 127.785C231.996 127.212 236.244 129.629 240.556 129.057C244.488 128.484 247.595 125.559 251.146 123.714C255.141 121.615 259.833 120.852 264.272 121.615C270.549 122.696 276.446 126.64 282.787 125.749C288.431 124.923 292.679 120.406 297.752 117.926C304.41 114.682 312.717 115.064 319.058 118.944C325.399 122.824 329.521 130.075 329.584 137.517C329.584 138.089 329.584 138.661 329.204 139.107C328.76 139.679 327.935 139.743 327.238 139.743C324.638 139.743 322.102 139.298 319.502 138.852C297.372 135.29 274.798 134.845 252.351 135.672C246.39 135.863 240.366 136.181 234.406 137.135C228.318 138.089 222.738 141.078 216.904 142.16C216.144 136.244 221.85 128.548 227.684 127.785Z" fill="#7ECDEC"/>
<path d="M214.814 145.277C214.433 145.277 213.99 145.149 213.609 144.958C212.912 144.577 212.468 143.877 212.468 143.05C212.404 141.778 210.882 111.756 229.652 92.7378C240.305 81.9884 255.269 76.9635 274.229 77.9812C304.159 79.5077 318.87 96.6814 325.972 110.866C333.581 126.067 334.088 140.633 334.152 141.269C334.152 142.033 333.834 142.732 333.264 143.178C332.693 143.623 331.932 143.814 331.235 143.623C331.044 143.559 311.07 138.725 269.41 137.58C233.456 136.562 216.082 144.958 215.892 145.086C215.511 145.213 215.131 145.277 214.814 145.277ZM269.664 82.4972C254.191 82.4972 241.827 87.0132 232.949 95.9817C219.126 109.975 217.223 131.22 217.033 139.425C223.818 136.944 240.875 132.046 269.41 132.873C302.637 133.764 321.977 136.944 329.079 138.343C328.508 133.382 326.796 123.078 321.596 112.774C312.085 93.8827 296.042 83.7693 273.849 82.6244C272.517 82.5608 271.059 82.4972 269.664 82.4972Z" fill="#231F20"/>
</g>
<defs>
<clipPath id="clip0_335_27148">
<rect width="333.156" height="230" fill="white" transform="translate(0.921875)"/>
</clipPath>
</defs>
</svg>
