<svg width="29" height="29" viewBox="0 0 29 29" fill="none" xmlns="http://www.w3.org/2000/svg">
<path d="M11.0829 18.8258C10.8533 18.8258 10.6238 18.7412 10.4425 18.56C10.0921 18.2096 10.0921 17.6296 10.4425 17.2792L17.2817 10.44C17.6321 10.0896 18.2121 10.0896 18.5625 10.44C18.9129 10.7904 18.9129 11.3704 18.5625 11.7208L11.7233 18.56C11.5542 18.7412 11.3125 18.8258 11.0829 18.8258Z" fill="#131313"/>
<path d="M17.9221 18.8258C17.6925 18.8258 17.4629 18.7412 17.2817 18.56L10.4425 11.7208C10.0921 11.3704 10.0921 10.7904 10.4425 10.44C10.7929 10.0896 11.3729 10.0896 11.7233 10.44L18.5625 17.2792C18.9129 17.6296 18.9129 18.2096 18.5625 18.56C18.3813 18.7412 18.1517 18.8258 17.9221 18.8258Z" fill="#353535"/>
<path d="M18.1224 27.4896H10.8724C4.31115 27.4896 1.50781 24.6863 1.50781 18.125V10.875C1.50781 4.31377 4.31115 1.51044 10.8724 1.51044H18.1224C24.6836 1.51044 27.487 4.31377 27.487 10.875V18.125C27.487 24.6863 24.6836 27.4896 18.1224 27.4896ZM10.8724 3.32294C5.30198 3.32294 3.32031 5.3046 3.32031 10.875V18.125C3.32031 23.6954 5.30198 25.6771 10.8724 25.6771H18.1224C23.6928 25.6771 25.6745 23.6954 25.6745 18.125V10.875C25.6745 5.3046 23.6928 3.32294 18.1224 3.32294H10.8724Z" fill="#353535"/>
</svg>
