<svg width="24" height="24" viewBox="0 0 24 24" fill="none" xmlns="http://www.w3.org/2000/svg">
<path d="M20.3775 21.13C20.1775 21.13 19.9875 21.05 19.8475 20.91L13.4675 14.53C13.1775 14.24 13.1775 13.76 13.4675 13.47L21.1975 5.74001C21.3875 5.55001 21.6775 5.48001 21.9375 5.55001C22.1975 5.63001 22.3975 5.84001 22.4575 6.10001C22.6475 6.95001 22.7475 7.90001 22.7475 9.00001V15C22.7475 17.77 22.1675 19.64 20.9075 20.91C20.7675 21.05 20.5575 21.08 20.3775 21.13ZM15.0575 14L20.3175 19.26C20.9475 18.29 21.2475 16.91 21.2475 15V9.00001C21.2475 8.59001 21.2375 8.21001 21.2075 7.85001L15.0575 14Z" fill="#353535"/>
<path d="M6.26999 22.48C6.20999 22.48 6.16001 22.47 6.10001 22.46C2.79001 21.7 1.25 19.33 1.25 15V9C1.25 3.57 3.57 1.25 9 1.25H15C19.33 1.25 21.7 2.79001 22.46 6.10001C22.52 6.35001 22.44 6.62 22.26 6.8L6.79999 22.26C6.65999 22.4 6.46999 22.48 6.26999 22.48ZM9 2.75C4.39 2.75 2.75 4.39 2.75 9V15C2.75 18.47 3.71001 20.21 6.04001 20.9L20.89 6.05C20.21 3.72 18.46 2.75999 14.99 2.75999H9V2.75Z" fill="#353535"/>
<path d="M14.9965 22.7499H8.99647C7.89647 22.7499 6.95647 22.6599 6.09647 22.4599C5.82647 22.3999 5.61646 22.1999 5.54646 21.9399C5.46646 21.6799 5.54646 21.3999 5.73646 21.1999L13.4665 13.4699C13.7565 13.1799 14.2365 13.1799 14.5265 13.4699L20.9065 19.8499C21.0465 19.9899 21.1265 20.1799 21.1265 20.3799C21.1265 20.5799 21.0465 20.7699 20.9065 20.9099C19.6365 22.1699 17.7665 22.7499 14.9965 22.7499ZM7.84647 21.2099C8.20647 21.2399 8.58647 21.2499 8.99647 21.2499H14.9965C16.9165 21.2499 18.2865 20.9499 19.2565 20.3199L13.9965 15.0599L7.84647 21.2099Z" fill="#353535"/>
<path d="M9.12287 13.31C8.49287 13.31 7.86286 13.08 7.36286 12.61C5.77286 11.1 5.13289 9.44005 5.51289 7.82005C5.89289 6.16005 7.34287 5.04004 9.12287 5.04004C10.9029 5.04004 12.3529 6.16005 12.7329 7.82005C13.1029 9.45005 12.4629 11.1 10.8729 12.61C10.3829 13.07 9.75287 13.31 9.12287 13.31ZM6.97288 8.15004C6.65288 9.51004 7.57287 10.7301 8.40287 11.5201C8.81287 11.91 9.44287 11.91 9.84287 11.5201C10.6629 10.7401 11.5829 9.52004 11.2729 8.15004C11.0029 6.96004 9.94287 6.53004 9.12287 6.53004C8.30287 6.53004 7.25288 6.96004 6.97288 8.15004Z" fill="#353535"/>
<path d="M9.14844 9.48999C8.59844 9.48999 8.14844 9.03999 8.14844 8.48999C8.14844 7.93999 8.58844 7.48999 9.14844 7.48999H9.15845C9.70845 7.48999 10.1584 7.93999 10.1584 8.48999C10.1584 9.03999 9.69844 9.48999 9.14844 9.48999Z" fill="#353535"/>
</svg>
