<svg width="25" height="24" viewBox="0 0 25 24" fill="none" xmlns="http://www.w3.org/2000/svg">
<path d="M21.75 7.75H3.75C3.34 7.75 3 7.41 3 7C3 6.59 3.34 6.25 3.75 6.25H21.75C22.16 6.25 22.5 6.59 22.5 7C22.5 7.41 22.16 7.75 21.75 7.75Z" fill="white"/>
<path d="M21.75 12.75H3.75C3.34 12.75 3 12.41 3 12C3 11.59 3.34 11.25 3.75 11.25H21.75C22.16 11.25 22.5 11.59 22.5 12C22.5 12.41 22.16 12.75 21.75 12.75Z" fill="white"/>
<path d="M21.75 17.75H3.75C3.34 17.75 3 17.41 3 17C3 16.59 3.34 16.25 3.75 16.25H21.75C22.16 16.25 22.5 16.59 22.5 17C22.5 17.41 22.16 17.75 21.75 17.75Z" fill="white"/>
</svg>
