<svg width="24" height="24" viewBox="0 0 24 24" fill="none" xmlns="http://www.w3.org/2000/svg">
<path d="M10 14.75H6.2C2.78 14.75 1.25 13.22 1.25 9.80005V6.19995C1.25 2.77995 2.78 1.25 6.2 1.25H9.8C13.22 1.25 14.75 2.77995 14.75 6.19995V10C14.75 10.41 14.42 10.74 14.01 10.75C11.61 10.79 10.79 11.62 10.75 14.01C10.74 14.42 10.41 14.75 10 14.75ZM6.2 2.75C3.62 2.75 2.75 3.61995 2.75 6.19995V9.80005C2.75 12.38 3.62 13.25 6.2 13.25H9.29C9.53 10.81 10.81 9.54004 13.25 9.29004V6.19995C13.25 3.61995 12.38 2.75 9.8 2.75H6.2Z" fill="#353535"/>
<path d="M5.20147 6.63002C4.97147 6.63002 4.73147 6.52007 4.59147 6.31007C4.35147 5.97007 4.43147 5.50002 4.77147 5.26002C5.55147 4.71002 6.60147 4.7 7.39147 5.24C7.73147 5.47 7.82147 5.94004 7.59147 6.28004C7.36147 6.62004 6.89147 6.70999 6.55147 6.47999C6.28147 6.29999 5.92147 6.3 5.65147 6.49C5.50147 6.59 5.35147 6.63002 5.20147 6.63002Z" fill="#353535"/>
<path d="M9.20147 6.63002C8.97147 6.63002 8.73147 6.52007 8.59147 6.31007C8.35147 5.97007 8.43147 5.50002 8.77147 5.26002C9.55147 4.71002 10.6015 4.7 11.3915 5.24C11.7315 5.47 11.8215 5.94004 11.5915 6.28004C11.3615 6.62004 10.8915 6.70999 10.5515 6.47999C10.2815 6.29999 9.92147 6.3 9.65147 6.49C9.50147 6.59 9.35147 6.63002 9.20147 6.63002Z" fill="#353535"/>
<path d="M8.15688 12.17H5.83688C5.12688 12.17 4.54688 11.59 4.54688 10.88C4.54688 8.98 6.09688 7.43005 7.99688 7.43005C8.77688 7.43005 9.54688 7.69994 10.1569 8.18994C10.4769 8.44994 10.5369 8.91999 10.2769 9.23999C10.0169 9.55999 9.54688 9.60999 9.22688 9.35999C8.87688 9.07999 8.45687 8.93005 8.00687 8.93005C7.00687 8.93005 6.17688 9.69004 6.06688 10.67H8.16687C8.57687 10.67 8.91687 11.01 8.91687 11.42C8.91687 11.83 8.56688 12.17 8.15688 12.17Z" fill="#353535"/>
<path d="M17.8 22.75H14.2C10.78 22.75 9.25 21.22 9.25 17.8V14C9.31 10.81 10.81 9.31 13.99 9.25H17.8C21.22 9.25 22.75 10.78 22.75 14.2V17.8C22.75 21.22 21.22 22.75 17.8 22.75ZM14 10.75C11.62 10.79 10.79 11.62 10.75 14.01V17.8C10.75 20.38 11.62 21.25 14.2 21.25H17.8C20.38 21.25 21.25 20.38 21.25 17.8V14.2C21.25 11.62 20.38 10.75 17.8 10.75H14Z" fill="#353535"/>
<path d="M14.0915 14.63C13.6215 14.63 13.1615 14.49 12.7715 14.21C12.4315 13.97 12.3515 13.5001 12.5915 13.1601C12.8315 12.8201 13.3015 12.74 13.6415 12.98C13.9115 13.17 14.2715 13.17 14.5415 12.99C14.8815 12.76 15.3515 12.84 15.5815 13.19C15.8115 13.53 15.7315 14 15.3815 14.23C14.9915 14.5 14.5415 14.63 14.0915 14.63Z" fill="#353535"/>
<path d="M18.0915 14.63C17.6215 14.63 17.1615 14.49 16.7715 14.21C16.4315 13.97 16.3515 13.5001 16.5915 13.1601C16.8315 12.8201 17.3015 12.74 17.6415 12.98C17.9115 13.17 18.2715 13.17 18.5415 12.99C18.8815 12.76 19.3515 12.84 19.5815 13.19C19.8115 13.53 19.7315 14 19.3815 14.23C18.9915 14.5 18.5415 14.63 18.0915 14.63Z" fill="#353535"/>
<path d="M15.9969 20.17C14.0969 20.17 12.5469 18.62 12.5469 16.72C12.5469 16.01 13.1269 15.4301 13.8369 15.4301H18.1569C18.8669 15.4301 19.4469 16.01 19.4469 16.72C19.4469 18.62 17.8969 20.17 15.9969 20.17ZM14.0569 16.9301C14.1569 17.9101 14.9869 18.67 15.9969 18.67C17.0069 18.67 17.8269 17.9101 17.9369 16.9301H14.0569Z" fill="#353535"/>
</svg>
