<svg width="25" height="24" viewBox="0 0 25 24" fill="none" xmlns="http://www.w3.org/2000/svg">
<path d="M21.2206 18.24L20.2806 17.3C20.7706 16.56 21.0606 15.67 21.0606 14.71C21.0606 12.11 18.9506 10 16.3506 10C13.7506 10 11.6406 12.11 11.6406 14.71C11.6406 17.31 13.7506 19.42 16.3506 19.42C17.3106 19.42 18.1906 19.13 18.9406 18.64L19.8806 19.58C20.0706 19.77 20.3106 19.86 20.5606 19.86C20.8106 19.86 21.0506 19.77 21.2406 19.58C21.5906 19.22 21.5906 18.62 21.2206 18.24Z" fill="white"/>
<path d="M20.0819 4.02V6.24C20.0819 7.05 19.5819 8.06 19.0819 8.57L18.9019 8.73C18.7619 8.86 18.5519 8.89 18.3719 8.83C18.1719 8.76 17.9719 8.71 17.7719 8.66C17.3319 8.55 16.8619 8.5 16.3819 8.5C12.9319 8.5 10.1319 11.3 10.1319 14.75C10.1319 15.89 10.4419 17.01 11.0319 17.97C11.5319 18.81 12.2319 19.51 12.9919 19.98C13.2219 20.13 13.3119 20.45 13.1119 20.63C13.0419 20.69 12.9719 20.74 12.9019 20.79L11.5019 21.7C10.2019 22.51 8.41187 21.6 8.41187 19.98V14.63C8.41187 13.92 8.01188 13.01 7.61188 12.51L3.82187 8.47C3.32187 7.96 2.92188 7.05 2.92188 6.45V4.12C2.92188 2.91 3.82187 2 4.91187 2H18.0919C19.1819 2 20.0819 2.91 20.0819 4.02Z" fill="white"/>
</svg>
